<?xml version="1.0" encoding="utf-8"?>
<svg viewBox="0 0 500 500" xmlns="http://www.w3.org/2000/svg">
  <path fill="#010101" opacity="1.000000" stroke="none" d="M 500.772 182.556 C 500.772 288.571 500.772 394.392 500.772 500.214 C 333.754 500.214 166.733 500.214 -0.284 500.214 C -0.284 333.329 -0.284 166.445 -0.284 -0.442 C 166.733 -0.442 333.754 -0.442 500.771 -0.442 C 500.772 60.493 500.772 121.429 500.772 182.556 M 23.764 229.77 C 23.491 232.762 23.156 235.75 22.958 238.743 C 21.86 255.521 22.526 272.23 25.023 288.845 C 27.154 303.03 30.57 316.891 35.262 330.431 C 43.288 353.582 54.677 374.849 69.27 394.336 C 80.189 408.922 92.677 421.961 106.677 433.467 C 127.641 450.695 150.893 463.684 176.356 472.558 C 187.862 476.567 199.607 479.608 211.577 481.707 C 220.085 483.199 228.658 484.167 237.285 484.681 C 254.849 485.723 272.294 484.717 289.617 481.658 C 301.581 479.546 313.32 476.479 324.804 472.395 C 334.74 468.864 344.413 464.728 353.792 459.862 C 372.297 450.26 389.236 438.335 404.596 424.067 C 406.299 422.483 407.979 420.871 409.639 419.305 C 418.006 424.571 425.52 421.768 429.097 417.857 C 435.271 411.101 434.838 403.9 429.847 396.757 C 429.943 396.49 429.961 396.354 430.032 396.255 C 430.508 395.581 430.985 394.91 431.48 394.252 C 449.598 370.123 462.564 343.379 470.398 314.039 C 474.429 298.949 476.925 283.583 477.862 267.972 C 479.435 241.832 476.777 216.147 469.772 190.94 C 464.584 172.269 457.158 154.579 447.576 137.837 C 438.764 122.437 428.353 108.265 416.342 95.308 C 403.849 81.83 389.996 70.035 374.733 59.994 C 359.739 50.131 343.828 42.17 327.005 36.101 C 308.443 29.41 289.367 25.221 269.773 23.502 C 250.739 21.832 231.779 22.594 212.93 25.772 C 200.077 27.94 187.488 31.215 175.184 35.601 C 158.044 41.71 141.847 49.801 126.587 59.835 C 107.462 72.403 90.519 87.518 75.819 105.26 C 65.434 117.798 56.459 131.316 48.924 145.815 C 40.71 161.619 34.351 178.186 29.918 195.516 C 27.069 206.666 24.974 217.955 23.764 229.77 Z" style="fill-opacity: 0;"/>
  <path fill="#EDEEEE" opacity="1.000000" stroke="none" d="M 23.781 229.594 C 24.974 217.955 27.069 206.666 29.918 195.516 C 34.351 178.186 40.71 161.619 48.924 145.815 C 56.459 131.316 65.434 117.798 75.819 105.26 C 90.519 87.518 107.462 72.403 126.587 59.835 C 141.847 49.801 158.044 41.71 175.184 35.601 C 187.488 31.215 200.077 27.94 212.93 25.772 C 231.779 22.594 250.739 21.832 269.773 23.502 C 289.367 25.221 308.443 29.41 327.005 36.101 C 343.828 42.17 359.739 50.131 374.733 59.994 C 389.996 70.035 403.849 81.83 416.342 95.308 C 428.353 108.265 438.764 122.437 447.576 137.837 C 457.158 154.579 464.584 172.269 469.772 190.94 C 476.777 216.147 479.435 241.832 477.862 267.972 C 476.925 283.583 474.429 298.949 470.398 314.039 C 462.564 343.379 449.598 370.123 431.48 394.252 C 430.985 394.91 430.508 395.581 430.032 396.255 C 429.961 396.354 429.943 396.49 429.847 396.757 C 434.838 403.9 435.271 411.101 429.097 417.857 C 425.52 421.768 418.006 424.571 409.639 419.305 C 407.979 420.871 406.299 422.483 404.596 424.067 C 389.236 438.335 372.297 450.26 353.792 459.862 C 344.413 464.728 334.74 468.864 324.804 472.395 C 313.32 476.479 301.581 479.546 289.617 481.658 C 272.294 484.717 254.849 485.723 237.285 484.681 C 228.658 484.167 220.085 483.199 211.577 481.707 C 199.607 479.608 187.862 476.567 176.356 472.558 C 150.893 463.684 127.641 450.695 106.677 433.467 C 92.677 421.961 80.189 408.922 69.27 394.336 C 54.677 374.849 43.288 353.582 35.262 330.431 C 30.57 316.891 27.154 303.03 25.023 288.845 C 22.526 272.23 21.86 255.521 22.958 238.743 C 23.156 235.75 23.491 232.762 23.781 229.594 M 51.835 148.228 C 48.903 154.655 45.763 160.993 43.074 167.524 C 33.619 190.471 28.303 214.44 26.649 239.262 C 25.549 255.715 26.264 272.111 28.717 288.41 C 31.335 305.795 35.882 322.649 42.396 338.93 C 48.833 355.029 56.962 370.183 66.773 384.405 C 79.298 402.558 94.096 418.482 111.169 432.219 C 122.258 441.145 134.084 448.906 146.622 455.505 C 158.82 461.926 171.495 467.155 184.637 471.236 C 200.565 476.184 216.812 479.283 233.39 480.589 C 251.37 482.006 269.255 481.16 287.058 478.183 C 300.611 475.917 313.826 472.385 326.738 467.634 C 340.306 462.64 353.273 456.352 365.662 448.8 C 380.068 440.026 393.336 429.734 405.517 417.967 C 406.009 417.49 406.452 416.968 406.983 416.393 C 404.797 413.469 403.718 410.262 403.745 406.687 C 403.77 403.019 405.015 399.813 407.313 397.033 C 409.309 394.618 411.861 393.099 414.845 392.267 C 419.025 391.099 422.882 392.064 426.68 394.137 C 427.172 393.561 427.64 393.059 428.055 392.513 C 442.544 373.415 453.749 352.474 461.691 329.714 C 468.072 311.441 472.116 292.629 473.738 273.292 C 476.113 245.024 473.502 217.248 465.663 190.004 C 458.479 165.045 447.351 142.075 432.461 120.999 C 423.867 108.833 414.174 97.661 403.41 87.451 C 392.371 76.975 380.405 67.759 367.528 59.781 C 356.003 52.638 343.931 46.641 331.35 41.698 C 320.531 37.445 309.453 34.072 298.128 31.58 C 284.278 28.533 270.255 26.817 256.089 26.445 C 239.584 26.01 223.214 27.412 207.014 30.653 C 191.628 33.734 176.71 38.404 162.282 44.708 C 138.478 55.108 117 69.198 97.928 87.079 C 79.179 104.661 63.883 124.992 51.835 148.228 Z" style=""/>
  <path fill="#030303" opacity="1.000000" stroke="none" d="M 51.9 148.101 C 63.883 124.992 79.179 104.661 97.928 87.079 C 117 69.198 138.478 55.108 162.282 44.708 C 176.71 38.404 191.628 33.734 207.014 30.653 C 223.214 27.412 239.584 26.01 256.089 26.445 C 270.255 26.817 284.278 28.533 298.128 31.58 C 309.453 34.072 320.531 37.445 331.35 41.698 C 343.931 46.641 356.003 52.638 367.528 59.781 C 380.405 67.759 392.371 76.975 403.41 87.451 C 414.174 97.661 423.867 108.833 432.461 120.999 C 447.351 142.075 458.479 165.045 465.663 190.004 C 473.502 217.248 476.113 245.024 473.738 273.292 C 472.116 292.629 468.072 311.441 461.691 329.714 C 453.749 352.474 442.544 373.415 428.055 392.513 C 427.64 393.059 427.172 393.561 426.68 394.137 C 422.882 392.064 419.025 391.099 414.845 392.267 C 411.861 393.099 409.309 394.618 407.313 397.033 C 405.015 399.813 403.77 403.019 403.745 406.687 C 403.718 410.262 404.797 413.469 406.983 416.393 C 406.452 416.968 406.009 417.49 405.517 417.967 C 393.336 429.734 380.068 440.026 365.662 448.8 C 353.273 456.352 340.306 462.64 326.738 467.634 C 313.826 472.385 300.611 475.917 287.058 478.183 C 269.255 481.16 251.37 482.006 233.39 480.589 C 216.812 479.283 200.565 476.184 184.637 471.236 C 171.495 467.155 158.82 461.926 146.622 455.505 C 134.084 448.906 122.258 441.145 111.169 432.219 C 94.096 418.482 79.298 402.558 66.773 384.405 C 56.962 370.183 48.833 355.029 42.396 338.93 C 35.882 322.649 31.335 305.795 28.717 288.41 C 26.264 272.111 25.549 255.715 26.649 239.262 C 28.303 214.44 33.619 190.471 43.074 167.524 C 45.763 160.993 48.903 154.655 51.9 148.101 M 384.059 406.034 C 394.841 396.317 404.534 385.571 413.055 373.74 C 423.907 358.675 432.568 342.383 439.046 324.875 C 445.592 307.187 449.686 288.925 451.3 270.097 C 452.922 251.194 451.914 232.419 448.356 213.788 C 444.934 195.864 439.243 178.725 431.314 162.372 C 423.667 146.601 414.186 132.071 402.88 118.779 C 394.026 108.368 384.252 98.969 373.55 90.58 C 355.669 76.563 336.011 65.97 314.64 58.699 C 299.925 53.695 284.85 50.464 269.403 48.954 C 251.924 47.244 234.538 47.914 217.234 50.839 C 204.375 53.017 191.839 56.492 179.622 61.168 C 161.642 68.055 144.949 77.334 129.543 89.039 C 118.818 97.186 108.983 106.336 100.041 116.49 C 90.081 127.802 81.461 140.092 74.205 153.368 C 68.059 164.61 63.029 176.364 59.04 188.586 C 54.673 201.974 51.673 215.676 50.084 229.687 C 48.604 242.739 48.388 255.825 49.404 268.938 C 50.4 281.789 52.551 294.427 55.91 306.839 C 60.465 323.675 67.011 339.676 75.576 354.81 C 84.648 370.842 95.614 385.366 108.512 398.373 C 115.83 405.747 123.648 412.514 131.989 418.653 C 132.577 419.085 133.103 419.605 133.627 420.059 C 133.478 420.487 133.399 420.725 133.308 420.963 C 131.848 424.887 131.71 428.836 133.321 432.734 C 137.72 443.359 151.297 445.067 158.244 436.645 C 158.549 436.273 158.922 435.959 159.252 435.63 C 159.735 435.841 160.084 435.974 160.417 436.142 C 170.359 441.168 180.647 445.298 191.251 448.599 C 200.477 451.47 209.837 453.754 219.383 455.137 C 225.261 455.99 231.167 456.736 237.086 457.16 C 247.394 457.898 257.708 457.746 268.01 456.813 C 276.557 456.041 285.023 454.752 293.396 452.871 C 303.667 450.565 313.709 447.459 323.521 443.568 C 337.568 437.989 350.834 430.895 363.347 422.331 C 370.528 417.415 377.352 412.025 384.059 406.034 Z" style="fill-opacity: 0;"/>
  <path fill="#EBECEC" opacity="1.000000" stroke="none" d="M 383.958 406.119 C 377.352 412.025 370.528 417.415 363.347 422.331 C 350.834 430.895 337.568 437.989 323.521 443.568 C 313.709 447.459 303.667 450.565 293.396 452.871 C 285.023 454.752 276.557 456.041 268.01 456.813 C 257.708 457.746 247.394 457.898 237.086 457.16 C 231.167 456.736 225.261 455.99 219.383 455.137 C 209.837 453.754 200.477 451.47 191.251 448.599 C 180.647 445.298 170.359 441.168 160.417 436.142 C 160.084 435.974 159.735 435.841 159.252 435.63 C 158.922 435.959 158.549 436.273 158.244 436.645 C 151.297 445.067 137.72 443.359 133.321 432.734 C 131.71 428.836 131.848 424.887 133.308 420.963 C 133.399 420.725 133.478 420.487 133.627 420.059 C 133.103 419.605 132.577 419.085 131.989 418.653 C 123.648 412.514 115.83 405.747 108.512 398.373 C 95.614 385.366 84.648 370.842 75.576 354.81 C 67.011 339.676 60.465 323.675 55.91 306.839 C 52.551 294.427 50.4 281.789 49.404 268.938 C 48.388 255.825 48.604 242.739 50.084 229.687 C 51.673 215.676 54.673 201.974 59.04 188.586 C 63.029 176.364 68.059 164.61 74.205 153.368 C 81.461 140.092 90.081 127.802 100.041 116.49 C 108.983 106.336 118.818 97.186 129.543 89.039 C 144.949 77.334 161.642 68.055 179.622 61.168 C 191.839 56.492 204.375 53.017 217.234 50.839 C 234.538 47.914 251.924 47.244 269.403 48.954 C 284.85 50.464 299.925 53.695 314.64 58.699 C 336.011 65.97 355.669 76.563 373.55 90.58 C 384.252 98.969 394.026 108.368 402.88 118.779 C 414.186 132.071 423.667 146.601 431.314 162.372 C 439.243 178.725 444.934 195.864 448.356 213.788 C 451.914 232.419 452.922 251.194 451.3 270.097 C 449.686 288.925 445.592 307.187 439.046 324.875 C 432.568 342.383 423.907 358.675 413.055 373.74 C 404.534 385.571 394.841 396.317 383.958 406.119 M 381.309 404.012 C 391.036 395.406 399.783 385.86 407.665 375.475 C 420.343 358.773 430.159 340.455 437.154 320.578 C 442.337 305.851 445.789 290.693 447.528 275.128 C 449.493 257.551 449.157 240.019 446.563 222.547 C 444.693 209.944 441.624 197.629 437.414 185.613 C 428.64 160.569 415.562 138.133 398.174 118.362 C 380.775 98.585 360.306 82.943 336.827 71.452 C 316.105 61.307 294.302 55.005 271.466 52.494 C 256.736 50.876 242.009 50.987 227.284 52.766 C 214.446 54.314 201.881 57.096 189.591 61.141 C 172.05 66.917 155.586 74.999 140.237 85.442 C 121.049 98.499 104.524 114.417 90.785 133.345 C 73.914 156.59 62.589 182.401 56.509 210.65 C 54.086 221.916 52.653 233.316 52.196 244.834 C 51.444 263.863 53.313 282.625 57.824 301.113 C 60.935 313.865 65.215 326.195 70.686 338.086 C 77.912 353.784 86.954 368.301 97.847 381.615 C 108.494 394.625 120.524 406.114 134.011 416.004 C 134.5 416.361 135.032 416.66 135.565 416.999 C 141.269 411.307 147.71 409.643 154.595 413.809 C 161.586 418.039 163.071 424.728 160.919 432.51 C 161.47 432.835 161.938 433.145 162.433 433.395 C 174.469 439.472 187.014 444.173 199.994 447.635 C 211.394 450.677 222.968 452.681 234.722 453.622 C 251.396 454.958 267.971 454.163 284.441 451.253 C 292.454 449.835 300.344 447.869 308.133 445.453 C 320.254 441.695 331.909 436.786 343.112 430.761 C 356.784 423.408 369.472 414.586 381.309 404.012 Z" style=""/>
  <path fill="#030303" opacity="1.000000" stroke="none" d="M 381.209 404.1 C 369.472 414.586 356.784 423.408 343.112 430.761 C 331.909 436.786 320.254 441.695 308.133 445.453 C 300.344 447.869 292.454 449.835 284.441 451.253 C 267.971 454.163 251.396 454.958 234.722 453.622 C 222.968 452.681 211.394 450.677 199.994 447.635 C 187.014 444.173 174.469 439.472 162.433 433.395 C 161.938 433.145 161.47 432.835 160.919 432.51 C 163.071 424.728 161.586 418.039 154.595 413.809 C 147.71 409.643 141.269 411.307 135.565 416.999 C 135.032 416.66 134.5 416.361 134.011 416.004 C 120.524 406.114 108.494 394.625 97.847 381.615 C 86.954 368.301 77.912 353.784 70.686 338.086 C 65.215 326.195 60.935 313.865 57.824 301.113 C 53.313 282.625 51.444 263.863 52.196 244.834 C 52.653 233.316 54.086 221.916 56.509 210.65 C 62.589 182.401 73.914 156.59 90.785 133.345 C 104.524 114.417 121.049 98.499 140.237 85.442 C 155.586 74.999 172.05 66.917 189.591 61.141 C 201.881 57.096 214.446 54.314 227.284 52.766 C 242.009 50.987 256.736 50.876 271.466 52.494 C 294.302 55.005 316.105 61.307 336.827 71.452 C 360.306 82.943 380.775 98.585 398.174 118.362 C 415.562 138.133 428.64 160.569 437.414 185.613 C 441.624 197.629 444.693 209.944 446.563 222.547 C 449.157 240.019 449.493 257.551 447.528 275.128 C 445.789 290.693 442.337 305.851 437.154 320.578 C 430.159 340.455 420.343 358.773 407.665 375.475 C 399.783 385.86 391.036 395.406 381.209 404.1 M 346.225 102.514 C 338.178 97.186 329.774 92.538 320.981 88.629 C 305.927 81.934 290.283 77.381 274.007 75.124 C 272.594 74.931 272.598 74.905 272.402 73.521 C 272.294 72.765 272.153 72.012 271.988 71.265 C 270.573 64.848 264.887 60.618 259.372 60.085 C 253.62 59.531 247.684 62.714 245.148 68.085 C 244.345 69.783 243.884 71.649 243.234 73.531 C 242.817 73.573 242.328 73.645 241.835 73.667 C 229.928 74.25 218.194 76.059 206.656 79.101 C 193.163 82.66 180.231 87.756 167.927 94.45 C 148.907 104.796 132.248 118.215 118.044 134.799 C 104.474 150.644 93.987 168.391 86.608 188.038 C 80.358 204.678 76.588 221.89 75.376 239.69 C 74.364 254.569 75.163 269.335 77.814 283.991 C 81.129 302.296 87.106 319.651 95.733 336.05 C 104.724 353.143 116.122 368.36 129.95 381.647 C 144.713 395.831 161.397 407.047 180 415.293 C 197.059 422.858 214.837 427.623 233.325 429.442 C 249.211 431.003 265.047 430.419 280.792 427.521 C 291.714 425.512 302.362 422.552 312.732 418.516 C 330.166 411.731 346.157 402.373 360.687 390.403 C 379.848 374.608 395.094 355.54 406.342 333.166 C 414.311 317.312 419.807 300.597 422.891 283.036 C 424.719 272.62 425.635 262.135 425.628 251.567 C 425.615 233.01 422.799 214.9 417.18 197.254 C 409.628 173.528 397.756 152.313 381.577 133.635 C 371.238 121.697 359.524 111.374 346.225 102.514 Z" style="fill-opacity: 0;"/>
  <path fill="#E9EAEA" opacity="1.000000" stroke="none" d="M 346.338 102.591 C 359.524 111.374 371.238 121.697 381.577 133.635 C 397.756 152.313 409.628 173.528 417.18 197.254 C 422.799 214.9 425.615 233.01 425.628 251.567 C 425.635 262.135 424.719 272.62 422.891 283.036 C 419.807 300.597 414.311 317.312 406.342 333.166 C 395.094 355.54 379.848 374.608 360.687 390.403 C 346.157 402.373 330.166 411.731 312.732 418.516 C 302.362 422.552 291.714 425.512 280.792 427.521 C 265.047 430.419 249.211 431.003 233.325 429.442 C 214.837 427.623 197.059 422.858 180 415.293 C 161.397 407.047 144.713 395.831 129.95 381.647 C 116.122 368.36 104.724 353.143 95.733 336.05 C 87.106 319.651 81.129 302.296 77.814 283.991 C 75.163 269.335 74.364 254.569 75.376 239.69 C 76.588 221.89 80.358 204.678 86.608 188.038 C 93.987 168.391 104.474 150.644 118.044 134.799 C 132.248 118.215 148.907 104.796 167.927 94.45 C 180.231 87.756 193.163 82.66 206.656 79.101 C 218.194 76.059 229.928 74.25 241.835 73.667 C 242.328 73.645 242.817 73.573 243.234 73.531 C 243.884 71.649 244.345 69.783 245.148 68.085 C 247.684 62.714 253.62 59.531 259.372 60.085 C 264.887 60.618 270.573 64.848 271.988 71.265 C 272.153 72.012 272.294 72.765 272.402 73.521 C 272.598 74.905 272.594 74.931 274.007 75.124 C 290.283 77.381 305.927 81.934 320.981 88.629 C 329.774 92.538 338.178 97.186 346.338 102.591 M 82.218 212.699 C 80.674 219.296 79.582 225.976 78.846 232.716 C 76.937 250.256 77.621 267.7 80.924 285.016 C 84.8 305.352 91.953 324.427 102.436 342.164 C 111.819 358.039 123.337 372.099 137.072 384.247 C 158.528 403.227 183.119 415.905 210.684 422.622 C 220.377 424.982 230.207 426.398 240.154 427.034 C 251.56 427.763 262.916 427.252 274.218 425.655 C 283.454 424.35 292.53 422.236 301.443 419.401 C 315.486 414.934 328.771 408.775 341.274 400.875 C 354.917 392.255 367.156 381.883 377.987 369.773 C 388.26 358.287 396.887 345.631 403.816 331.785 C 413.629 312.169 419.668 291.39 421.883 269.464 C 423.836 250.146 422.609 231.031 418.285 212.128 C 415.341 199.259 410.998 186.893 405.312 175.018 C 397.501 158.696 387.462 143.962 375.194 130.828 C 362.705 117.455 348.491 106.374 332.548 97.614 C 314.238 87.556 294.782 81.091 274.224 78.055 C 272.375 77.784 272.351 77.793 271.856 79.557 C 270.223 85.35 264.491 90.277 257.555 90.11 C 251.387 89.963 245.823 85.578 244.057 79.272 C 243.817 78.424 243.609 77.563 243.354 76.582 C 242.683 76.582 242.073 76.552 241.462 76.586 C 231.075 77.176 220.817 78.65 210.684 81.102 C 195.815 84.704 181.663 90.21 168.211 97.603 C 157.6 103.434 147.702 110.334 138.501 118.293 C 127.076 128.179 117.077 139.387 108.53 151.945 C 102.228 161.206 96.831 170.988 92.407 181.33 C 88.108 191.371 84.719 201.713 82.218 212.699 Z" style=""/>
  <path fill="#030303" opacity="1.000000" stroke="none" d="M 82.251 212.542 C 84.719 201.713 88.108 191.371 92.407 181.33 C 96.83 170.99 102.228 161.206 108.53 151.945 C 117.077 139.389 127.076 128.179 138.501 118.293 C 147.702 110.334 157.6 103.435 168.211 97.603 C 181.663 90.21 195.815 84.704 210.684 81.102 C 220.817 78.65 231.075 77.176 241.462 76.586 C 242.073 76.552 242.683 76.582 243.354 76.582 C 243.609 77.563 243.817 78.424 244.057 79.272 C 245.823 85.578 251.387 89.966 257.555 90.11 C 264.491 90.277 270.223 85.35 271.856 79.557 C 272.351 77.793 272.375 77.784 274.224 78.055 C 294.782 81.091 314.238 87.556 332.548 97.614 C 348.491 106.374 362.705 117.455 375.194 130.828 C 387.462 143.962 397.501 158.698 405.312 175.018 C 410.998 186.893 415.341 199.259 418.285 212.128 C 422.609 231.031 423.836 250.146 421.883 269.464 C 419.669 291.39 413.628 312.169 403.816 331.785 C 396.887 345.631 388.26 358.287 377.987 369.773 C 367.156 381.883 354.917 392.255 341.274 400.875 C 328.771 408.775 315.486 414.934 301.443 419.401 C 292.53 422.236 283.454 424.35 274.218 425.655 C 262.916 427.252 251.56 427.763 240.154 427.034 C 230.207 426.398 220.377 424.982 210.684 422.622 C 183.119 415.905 158.528 403.227 137.072 384.247 C 123.337 372.099 111.819 358.039 102.436 342.164 C 91.953 324.427 84.8 305.352 80.924 285.016 C 77.621 267.7 76.937 250.256 78.846 232.716 C 79.582 225.976 80.675 219.296 82.251 212.542 M 162.995 128.698 C 158.368 132.499 153.528 136.066 149.147 140.143 C 132.996 155.173 120.772 173.083 112.304 193.668 C 111.571 195.451 111.58 195.463 109.754 195.261 C 105.864 194.833 102.249 195.642 99.112 198.059 C 90.18 204.929 91.627 218.84 101.77 223.715 C 103.096 224.353 103.367 224.234 103.113 226.326 C 102.434 231.905 101.569 237.478 101.256 243.08 C 100.244 261.258 102.446 279.062 107.782 296.448 C 115.072 320.202 127.339 340.886 144.531 358.493 C 156.071 370.316 169.244 379.849 183.88 387.257 C 197.365 394.081 211.541 398.761 226.401 401.191 C 238.686 403.197 251.034 403.585 263.437 402.487 C 272.062 401.721 280.548 400.2 288.896 397.916 C 301.151 394.564 312.819 389.696 323.874 383.319 C 336.044 376.299 347.062 367.73 356.816 357.504 C 372.334 341.233 383.741 322.36 391.04 300.874 C 395.145 288.787 397.669 276.368 398.621 263.63 C 399.645 249.918 398.848 236.302 396.221 222.791 C 393.593 209.287 389.291 196.38 383.239 184.099 C 374.116 165.592 361.812 149.624 346.266 136.293 C 332.52 124.509 317.208 115.492 300.321 109.295 C 287.356 104.536 274.002 101.685 260.251 100.714 C 249.091 99.926 237.995 100.395 226.952 102.134 C 216.351 103.801 206.032 106.604 196.022 110.553 C 184.357 115.154 173.387 121.088 162.995 128.698 Z" style="fill-opacity: 0;"/>
  <path fill="#E7E8E8" opacity="1.000000" stroke="none" d="M 163.104 128.617 C 173.387 121.088 184.357 115.154 196.021 110.552 C 206.032 106.604 216.351 103.801 226.952 102.132 C 237.998 100.395 249.091 99.926 260.251 100.714 C 274.002 101.684 287.356 104.536 300.321 109.295 C 317.208 115.492 332.52 124.509 346.266 136.293 C 361.812 149.624 374.116 165.592 383.239 184.099 C 389.291 196.38 393.593 209.287 396.221 222.791 C 398.848 236.302 399.645 249.918 398.621 263.63 C 397.669 276.368 395.145 288.787 391.04 300.874 C 383.741 322.36 372.334 341.233 356.816 357.504 C 347.062 367.73 336.044 376.299 323.874 383.319 C 312.819 389.696 301.151 394.564 288.896 397.916 C 280.548 400.2 272.062 401.721 263.437 402.487 C 251.034 403.585 238.686 403.197 226.401 401.191 C 211.541 398.761 197.365 394.081 183.88 387.257 C 169.244 379.849 156.071 370.316 144.531 358.493 C 127.339 340.886 115.072 320.202 107.782 296.448 C 102.446 279.062 100.244 261.258 101.256 243.08 C 101.569 237.478 102.434 231.905 103.113 226.326 C 103.367 224.234 103.096 224.353 101.77 223.715 C 91.627 218.84 90.18 204.929 99.112 198.059 C 102.249 195.642 105.864 194.833 109.754 195.261 C 111.579 195.463 111.571 195.451 112.304 193.668 C 120.772 173.083 132.996 155.173 149.147 140.143 C 153.528 136.066 158.368 132.499 163.104 128.617 M 174.594 379.245 C 182.964 384.287 191.69 388.548 200.846 391.892 C 212.505 396.151 224.504 398.855 236.824 400.02 C 249.596 401.225 262.324 400.684 274.961 398.47 C 287.59 396.255 299.752 392.435 311.417 386.995 C 325.467 380.442 338.214 371.866 349.579 361.178 C 365.374 346.321 377.351 328.719 385.609 308.47 C 392.049 292.678 395.643 276.218 396.451 259.148 C 397.226 242.728 395.328 226.614 390.864 210.809 C 387.463 198.767 382.677 187.336 376.451 176.552 C 366.506 159.325 353.71 144.687 337.982 132.757 C 317.42 117.164 294.464 107.536 269.079 104.092 C 255.297 102.221 241.519 102.397 227.758 104.541 C 217.828 106.089 208.15 108.587 198.744 112.148 C 181.431 118.701 165.826 128.203 152.053 140.784 C 135.507 155.897 123.025 173.975 114.474 194.897 C 114.288 195.35 114.195 195.847 114.008 196.485 C 117.292 198.264 119.86 200.679 121.361 204.165 C 122.875 207.67 123.156 211.312 121.906 214.832 C 119.234 222.354 113.624 225.518 106 225.181 C 96.142 273.245 113.72 341.701 174.594 379.245 Z" style=""/>
  <path fill="#030303" opacity="1.000000" stroke="none" d="M 174.479 379.167 C 113.72 341.701 96.142 273.245 106 225.181 C 113.624 225.518 119.234 222.354 121.906 214.832 C 123.156 211.312 122.875 207.67 121.361 204.165 C 119.86 200.679 117.292 198.264 114.008 196.485 C 114.195 195.847 114.288 195.35 114.474 194.897 C 123.025 173.975 135.507 155.897 152.053 140.784 C 165.826 128.203 181.431 118.701 198.744 112.148 C 208.15 108.587 217.828 106.089 227.758 104.541 C 241.519 102.397 255.297 102.221 269.079 104.092 C 294.464 107.536 317.42 117.164 337.982 132.757 C 353.71 144.687 366.506 159.325 376.451 176.552 C 382.677 187.336 387.463 198.767 390.864 210.809 C 395.328 226.614 397.226 242.728 396.451 259.148 C 395.643 276.218 392.049 292.678 385.609 308.47 C 377.351 328.719 365.374 346.321 349.579 361.178 C 338.214 371.866 325.467 380.442 311.417 386.995 C 299.752 392.435 287.59 396.255 274.961 398.47 C 262.324 400.684 249.596 401.225 236.824 400.02 C 224.504 398.855 212.505 396.151 200.846 391.892 C 191.69 388.548 182.964 384.287 174.479 379.167 M 300.276 317.675 C 300.421 317.253 300.57 316.83 300.713 316.407 C 302.869 309.986 299.509 302.436 292.752 300.243 C 290.938 299.653 288.95 299.38 287.043 299.373 C 284.319 299.363 281.972 298.597 280.022 296.709 C 276.847 293.633 273.712 290.509 270.613 287.355 C 270.132 286.863 269.436 286.357 269.568 285.271 C 270.144 285.162 270.74 284.97 271.339 284.951 C 275.524 284.807 279.71 284.688 283.899 284.602 C 284.641 284.587 285.386 284.772 286.134 284.857 C 287.339 284.995 288.202 285.66 288.856 286.676 C 289.404 287.535 289.984 288.367 290.568 289.197 C 295.712 296.503 306.109 296.946 312.28 291.091 C 316.482 287.105 318.879 281.927 319.191 276.004 C 319.504 270.089 316.569 264.145 310.317 261.58 C 307.643 260.481 304.863 260.308 302.037 260.238 C 299.027 260.161 296.567 261.214 294.546 263.501 C 292.495 265.828 290.354 268.072 288.276 270.372 C 287.656 271.057 287.026 271.52 286.029 271.511 C 281.904 271.473 277.773 271.532 273.646 271.499 C 272.653 271.49 271.646 271.344 270.679 271.111 C 270.064 270.963 269.514 270.539 268.668 270.099 C 269.601 268.96 270.298 267.996 271.11 267.143 C 277.504 260.391 283.896 253.635 290.344 246.937 C 292.624 244.57 295.048 242.349 297.417 240.073 C 299.209 238.35 301.212 237.734 303.757 238.096 C 309.948 238.974 315.978 235.276 318.364 229.354 C 319.295 227.052 320.128 224.703 320.848 222.324 C 321.192 221.191 321.422 219.909 321.273 218.751 C 320.554 213.153 318.018 208.722 312.89 206.186 C 306.099 202.828 298.253 205.671 295.287 212.764 C 293.613 216.767 292.83 221.068 292.614 225.435 C 292.566 226.388 292.333 227.128 291.661 227.817 C 283.059 236.655 274.498 245.531 265.875 254.351 C 264.38 255.88 262.687 257.219 261.008 258.551 C 260.45 258.994 259.621 259.437 258.98 259.355 C 257.346 259.149 255.703 258.789 253.983 257.842 C 254.833 256.96 255.525 256.159 256.297 255.455 C 266.155 246.466 275.262 236.697 284.55 227.115 C 285.013 226.641 285.476 225.992 285.577 225.362 C 285.969 222.913 286.428 220.441 286.464 217.971 C 286.554 211.962 286.446 205.953 286.349 199.944 C 286.328 198.737 286.66 197.9 287.606 197.163 C 288.748 196.276 289.791 195.255 290.834 194.242 C 291.902 193.203 292.578 191.942 292.832 190.426 C 293.225 188.097 293.792 185.795 294.108 183.455 C 294.507 180.529 294.462 177.58 293.757 174.691 C 293.097 171.982 291.702 169.731 289.314 168.295 C 286.13 166.377 282.707 165.596 279.043 166.519 C 273.358 167.952 268.816 173.082 268.731 178.902 C 268.7 180.945 268.383 182.978 268.299 185.021 C 268.089 190.08 270.186 194.143 274.011 197.108 C 275.772 198.473 276.57 199.965 276.627 202.059 C 276.74 206.405 276.821 210.752 276.964 215.098 C 276.996 216.092 276.607 216.77 275.949 217.441 C 269.769 223.779 263.609 230.143 257.431 236.487 C 257.154 236.772 256.786 236.968 256.399 237.252 C 256.272 236.933 256.151 236.765 256.148 236.598 C 256.096 231.098 256.059 225.6 256 220.103 C 255.991 219.359 256.327 218.955 256.937 218.606 C 258.084 217.955 259.204 217.252 260.303 216.519 C 263.178 214.61 265.041 211.906 265.552 208.472 C 266.038 205.196 266.327 201.868 266.385 198.558 C 266.518 190.968 261.094 182.907 252.743 182.256 C 249.449 181.999 246.375 182.628 243.656 184.538 C 238.733 187.994 236.489 192.923 236.527 198.945 C 236.544 201.497 236.72 204.057 236.972 206.6 C 237.263 209.513 238.255 212.15 240.181 214.418 C 241.533 216.007 243.248 217.02 244.963 218.063 C 247.396 219.541 247.984 222.404 246.224 225.092 C 245.317 224.324 244.371 223.613 243.529 222.794 C 238.277 217.676 233.096 212.484 227.784 207.435 C 226.394 206.113 225.977 204.728 226.043 202.887 C 226.139 200.18 226.923 197.893 229.01 196.128 C 229.97 195.317 230.841 194.386 231.803 193.572 C 233.969 191.729 235.056 189.423 234.909 186.518 C 234.667 181.858 234.478 177.2 234.213 172.542 C 234.132 171.108 233.588 169.788 232.671 168.696 C 230.17 165.715 227.191 163.478 223.35 162.625 C 222.929 162.531 222.53 162.317 221.872 162.059 C 222.62 161.68 223.047 161.413 223.508 161.236 C 230.156 158.654 237.037 157.056 244.115 156.494 C 250.292 156.005 256.479 156.149 262.651 156.886 C 267.824 157.505 272.913 158.557 277.868 160.128 C 282.581 161.621 287.219 163.423 291.529 165.923 C 294.678 167.75 297.805 169.645 300.78 171.747 C 304.698 174.509 308.226 177.779 311.529 181.291 C 316.141 186.2 320.06 191.654 323.376 197.547 C 326.029 202.264 328.154 207.242 330.056 212.326 C 331.829 217.072 333.237 221.907 333.342 227.021 C 333.439 231.685 333.474 236.358 333.335 241.018 C 333.206 245.368 332.538 249.667 331.565 253.908 C 329.692 262.091 326.713 269.888 323.781 277.707 C 320.561 286.294 317.389 294.909 314.358 303.569 C 312.579 308.647 311.56 313.919 311.631 319.354 C 311.697 324.641 312.83 329.609 315.793 334.049 C 319.293 339.289 324.344 342.565 329.645 345.523 C 329.937 345.685 330.394 345.734 330.707 345.628 C 332.487 345.009 333.291 343.323 332.555 341.577 C 331.418 338.878 330.19 336.218 328.975 333.553 C 327.666 330.682 326.797 327.676 326.687 324.513 C 326.532 320.042 326.521 315.568 326.472 311.092 C 326.433 307.707 327.222 304.502 328.637 301.458 C 329.976 298.57 331.302 295.675 332.683 292.807 C 336.995 283.867 341.476 275.006 345.617 265.987 C 349.14 258.315 351.38 250.182 352.756 241.828 C 354.007 234.23 354.176 226.576 353.796 218.885 C 353.1 204.669 349.132 191.495 341.985 179.314 C 336.897 170.64 330.625 162.954 323.192 156.288 C 311.853 146.117 298.934 138.765 284.625 133.923 C 278.623 131.89 272.544 130.093 266.264 129.301 C 260.375 128.561 254.441 128.005 248.517 127.806 C 243.656 127.641 238.728 127.743 233.916 128.389 C 224.569 129.65 215.603 132.447 207.092 136.654 C 200.579 139.871 194.561 143.872 189.158 148.782 C 181.268 155.959 175.067 164.457 170.282 174.095 C 162.752 189.252 159.696 205.275 160.991 222.184 C 161.347 226.835 161.839 231.476 162.362 236.112 C 162.498 237.319 162.193 238.167 161.393 239.021 C 158.973 241.61 156.61 244.249 154.239 246.883 C 150.636 250.887 147.162 255 144.325 259.624 C 142.523 262.561 140.982 265.623 140.481 269.121 C 140.148 271.428 140.469 273.621 141.832 275.514 C 143.167 277.363 144.591 279.152 146.082 280.872 C 147.213 282.177 148.616 283.218 150.366 283.432 C 151.713 283.598 152.394 284.238 152.541 285.585 C 152.603 286.153 152.77 286.71 152.835 287.278 C 153.196 290.363 152.996 293.422 152.153 296.398 C 151.604 298.341 152.105 299.91 153.357 301.346 C 154.273 302.393 155.186 303.444 156.087 304.505 C 157.571 306.259 157.648 306.513 156.409 308.521 C 155.136 310.584 154.978 312.754 155.7 314.958 C 156.232 316.584 156.97 318.157 157.78 319.659 C 158.685 321.334 159.786 322.898 160.79 324.518 C 162.557 327.359 162.58 326.273 161.303 329.689 C 160.012 333.152 158.631 336.589 158.302 340.338 C 158.017 343.59 158.877 346.451 161.259 348.672 C 163.816 351.053 166.604 353.146 169.986 354.131 C 172.446 354.851 174.941 355.522 177.466 355.91 C 182.657 356.708 187.891 357.213 193.085 358.005 C 197.161 358.625 201.229 359.348 205.241 360.3 C 208.381 361.047 211.08 362.618 212.129 366.115 C 212.31 366.716 212.649 367.283 213.003 367.805 C 213.262 368.191 213.661 368.479 214.085 368.897 C 215.504 366.54 216.598 364.274 217.246 361.782 C 217.624 360.342 217.513 358.99 216.849 357.691 C 215.684 355.412 214.384 353.198 212.331 351.645 C 210.374 350.17 208.392 348.677 206.252 347.525 C 200.671 344.53 195.449 341.064 191.188 336.27 C 189.984 334.917 188.859 333.372 188.145 331.715 C 186.94 328.921 185.906 326.016 185.131 323.068 C 183.663 317.481 183.294 311.714 183.161 305.961 C 182.859 292.987 182.577 280.011 182.548 267.034 C 182.513 252.65 182.65 238.264 182.964 223.886 C 183.069 218.988 183.659 214.056 184.521 209.232 C 186.042 200.722 189.343 192.857 193.883 185.556 C 197.057 180.452 200.929 175.953 205.505 172.106 C 205.737 171.911 206.089 171.863 206.709 171.617 C 205.244 175.986 206.046 179.997 206.892 184.007 C 207.012 184.571 207.112 185.137 207.207 185.704 C 207.963 190.201 209.997 193.898 213.785 196.422 C 215.08 197.284 215.556 198.325 215.532 199.907 C 215.462 204.311 215.343 208.724 216.369 213.073 C 216.615 214.124 217.006 214.948 217.762 215.686 C 219.886 217.765 221.965 219.89 224.058 222 C 231.444 229.458 238.819 236.929 246.231 244.36 C 247.101 245.232 247.536 246.122 247.476 247.383 C 247.366 249.681 247.426 251.987 247.321 254.282 C 247.272 255.361 247.101 256.456 246.8 257.486 C 246.201 259.554 244.801 260.043 243.067 258.856 C 242.34 258.362 241.657 257.793 240.984 257.222 C 234.58 251.777 228.726 245.735 222.891 239.675 C 221.242 237.959 220.304 236.051 220.045 233.634 C 219.753 230.911 219.291 228.198 218.18 225.645 C 216.024 220.694 212.658 217.47 207.078 217.359 C 203.993 217.297 201.125 218.088 198.572 219.89 C 196.511 221.341 194.909 223.188 194.213 225.709 C 193.486 228.332 193.227 231.026 193.897 233.674 C 194.615 236.514 195.556 239.297 196.457 242.085 C 196.67 242.736 197.032 243.397 197.492 243.893 C 200.763 247.416 204.796 249.284 209.553 248.959 C 211.521 248.824 213.121 249.205 214.6 250.42 C 215.382 251.059 216.195 251.669 216.904 252.384 C 222.244 257.775 227.564 263.182 232.877 268.598 C 233.348 269.08 233.722 269.659 234.365 270.484 C 233.244 270.772 232.434 271.116 231.606 271.17 C 226.364 271.501 221.123 271.837 215.875 272.036 C 211.595 272.199 212.904 272.716 210.061 269.421 C 205.686 264.344 204.41 263.706 197.77 263.467 C 197.334 263.452 196.895 263.454 196.457 263.456 C 195.17 263.462 193.992 263.839 192.933 264.581 C 190.899 266.006 189.093 267.672 187.8 269.838 C 185.451 273.777 185.104 277.872 187.038 282.097 C 187.647 283.426 188.198 284.801 188.959 286.042 C 189.819 287.434 190.736 288.856 191.898 289.975 C 194.424 292.414 197.449 294.115 201.012 293.778 C 205.369 293.363 209.005 291.257 211.545 287.545 C 212.461 286.207 213.501 285.381 215.057 285.397 C 220.741 285.457 226.427 285.555 232.113 285.684 C 232.818 285.699 233.522 285.988 234.51 286.216 C 233.804 287.165 233.344 287.918 232.758 288.547 C 229.571 291.978 226.341 295.362 223.155 298.793 C 221.778 300.274 220.449 301.807 219.139 303.349 C 217.858 304.861 217.307 306.669 217.26 308.651 C 217.233 309.739 217.172 310.826 217.198 311.911 C 217.258 314.359 216.263 316.167 214.311 317.592 C 213.263 318.358 212.328 319.362 211.538 320.416 C 205.598 328.356 210.177 340.546 218.767 343.43 C 225.586 345.721 232.591 340.932 234.149 335.697 C 235.916 329.762 234.601 324.342 230.573 319.667 C 229.874 318.857 229.034 318.169 228.268 317.417 C 226.563 315.745 226.444 315.244 227.621 313.101 C 228.261 311.939 228.976 310.771 229.868 309.81 C 233.442 305.966 237.088 302.194 240.736 298.424 C 241.301 297.841 241.971 297.334 242.66 296.907 C 244.724 295.629 246.514 296.37 247.042 298.787 C 247.31 300.023 247.391 301.325 247.394 302.595 C 247.394 309.692 247.389 316.79 247.289 323.884 C 247.252 326.564 246.982 329.245 246.757 331.915 C 246.65 333.202 246.319 334.451 245.445 335.441 C 242.617 338.643 241.881 342.38 242.679 346.515 C 243.366 350.063 244.812 353.134 248.32 354.551 C 253.825 356.776 260.576 353.005 262.027 347.12 C 263.118 342.701 261.758 338.939 259.422 335.369 C 259.185 335.009 258.849 334.656 258.477 334.461 C 257.568 333.988 257.287 333.183 257.218 332.259 C 257.07 330.285 256.949 328.309 256.853 326.332 C 256.835 325.935 256.981 325.53 257.07 325.006 C 257.44 325.234 257.685 325.325 257.854 325.495 C 262.956 330.585 268.064 335.67 273.123 340.809 C 273.55 341.244 273.817 342.034 273.841 342.669 C 273.932 345.159 273.851 347.657 273.92 350.15 C 273.958 351.497 273.428 352.272 272.198 352.736 C 270.417 353.407 269.162 354.739 268.284 356.426 C 266.518 359.82 265.601 363.448 265.699 367.293 C 265.79 370.853 267.122 373.86 269.79 376.219 C 273.622 379.607 277.93 380.908 282.837 379.2 C 285.626 378.232 287.731 376.242 289.765 374.1 C 295.639 367.915 293.913 358.876 288.409 353.538 C 288.094 353.235 287.725 352.919 287.325 352.794 C 285.387 352.189 284.787 350.693 284.677 348.834 C 284.62 347.877 284.525 346.921 284.506 345.963 C 284.457 343.088 284.384 340.208 284.43 337.333 C 284.447 336.138 284.063 335.3 283.231 334.488 C 279.976 331.306 276.781 328.06 273.565 324.838 C 268.339 319.601 263.132 314.348 257.876 309.141 C 257.049 308.321 256.646 307.483 256.689 306.289 C 256.758 304.309 256.656 302.325 256.695 300.347 C 256.711 299.524 256.802 298.674 257.047 297.898 C 257.587 296.178 258.498 295.807 260.056 296.607 C 260.778 296.978 261.53 297.38 262.106 297.939 C 265.552 301.28 269 304.619 272.347 308.061 C 273.893 309.649 274.65 311.661 274.635 313.97 C 274.625 315.308 274.761 316.658 274.969 317.979 C 275.498 321.335 276.984 324.13 279.782 326.105 C 285.201 329.934 292.502 329.049 296.689 323.83 C 298.093 322.082 299.003 319.912 300.276 317.675 Z" style="fill-opacity: 0;"/>
  <path fill="#FBFBFB" opacity="1.000000" stroke="none" d="M 300.205 317.805 C 299.003 319.912 298.093 322.082 296.689 323.83 C 292.502 329.049 285.201 329.934 279.782 326.105 C 276.984 324.13 275.498 321.335 274.969 317.979 C 274.761 316.658 274.625 315.308 274.635 313.97 C 274.65 311.661 273.893 309.649 272.347 308.061 C 269 304.619 265.552 301.28 262.106 297.939 C 261.53 297.38 260.778 296.978 260.056 296.607 C 258.498 295.807 257.587 296.178 257.047 297.898 C 256.802 298.674 256.711 299.524 256.695 300.347 C 256.656 302.325 256.758 304.309 256.689 306.289 C 256.646 307.483 257.049 308.321 257.876 309.141 C 263.132 314.348 268.339 319.601 273.565 324.838 C 276.781 328.06 279.976 331.306 283.231 334.488 C 284.063 335.3 284.447 336.138 284.43 337.333 C 284.384 340.208 284.457 343.088 284.506 345.963 C 284.525 346.921 284.62 347.877 284.677 348.834 C 284.787 350.693 285.387 352.189 287.325 352.794 C 287.725 352.919 288.094 353.235 288.409 353.538 C 293.913 358.876 295.639 367.915 289.765 374.1 C 287.731 376.242 285.626 378.232 282.837 379.2 C 277.93 380.908 273.622 379.607 269.79 376.219 C 267.122 373.86 265.79 370.853 265.699 367.293 C 265.601 363.448 266.518 359.82 268.284 356.426 C 269.162 354.739 270.417 353.407 272.198 352.736 C 273.428 352.272 273.958 351.497 273.92 350.15 C 273.851 347.657 273.932 345.159 273.841 342.669 C 273.817 342.034 273.55 341.244 273.123 340.809 C 268.064 335.67 262.956 330.585 257.854 325.495 C 257.685 325.325 257.44 325.234 257.07 325.006 C 256.981 325.53 256.835 325.935 256.853 326.332 C 256.949 328.309 257.07 330.285 257.218 332.259 C 257.287 333.183 257.568 333.988 258.477 334.461 C 258.849 334.656 259.185 335.009 259.422 335.369 C 261.758 338.939 263.118 342.701 262.027 347.12 C 260.576 353.005 253.825 356.776 248.32 354.551 C 244.812 353.134 243.366 350.063 242.679 346.515 C 241.881 342.38 242.617 338.643 245.445 335.441 C 246.319 334.451 246.65 333.202 246.757 331.915 C 246.982 329.245 247.252 326.564 247.289 323.884 C 247.389 316.79 247.394 309.692 247.394 302.595 C 247.391 301.325 247.31 300.023 247.042 298.787 C 246.514 296.37 244.724 295.629 242.66 296.907 C 241.971 297.334 241.301 297.841 240.736 298.424 C 237.088 302.194 233.442 305.966 229.868 309.81 C 228.976 310.771 228.261 311.939 227.621 313.101 C 226.444 315.244 226.563 315.745 228.268 317.417 C 229.034 318.169 229.874 318.857 230.573 319.667 C 234.601 324.342 235.916 329.762 234.149 335.697 C 232.591 340.932 225.586 345.721 218.767 343.43 C 210.177 340.546 205.598 328.356 211.538 320.416 C 212.328 319.362 213.263 318.358 214.311 317.592 C 216.263 316.167 217.258 314.359 217.198 311.911 C 217.172 310.826 217.233 309.739 217.26 308.651 C 217.307 306.669 217.858 304.861 219.139 303.349 C 220.449 301.807 221.778 300.274 223.155 298.793 C 226.341 295.362 229.571 291.978 232.758 288.547 C 233.344 287.918 233.804 287.165 234.51 286.216 C 233.522 285.988 232.818 285.699 232.113 285.684 C 226.427 285.555 220.741 285.457 215.057 285.397 C 213.501 285.381 212.461 286.207 211.545 287.545 C 209.005 291.257 205.369 293.363 201.012 293.778 C 197.449 294.115 194.424 292.414 191.898 289.975 C 190.736 288.856 189.819 287.434 188.959 286.042 C 188.198 284.801 187.647 283.426 187.038 282.097 C 185.104 277.872 185.451 273.777 187.8 269.838 C 189.093 267.672 190.899 266.006 192.933 264.581 C 193.992 263.839 195.17 263.462 196.457 263.456 C 196.895 263.454 197.334 263.452 197.77 263.467 C 204.41 263.706 205.686 264.344 210.061 269.421 C 212.904 272.716 211.595 272.199 215.875 272.036 C 221.123 271.837 226.364 271.501 231.606 271.17 C 232.434 271.116 233.244 270.772 234.365 270.484 C 233.722 269.659 233.348 269.08 232.877 268.598 C 227.564 263.182 222.244 257.775 216.904 252.384 C 216.195 251.669 215.382 251.059 214.6 250.42 C 213.121 249.205 211.521 248.824 209.553 248.959 C 204.796 249.284 200.763 247.416 197.492 243.893 C 197.032 243.397 196.67 242.736 196.457 242.085 C 195.556 239.297 194.615 236.514 193.897 233.674 C 193.227 231.026 193.486 228.332 194.213 225.709 C 194.909 223.188 196.511 221.341 198.572 219.89 C 201.125 218.088 203.993 217.297 207.078 217.359 C 212.658 217.47 216.024 220.694 218.18 225.645 C 219.291 228.198 219.753 230.911 220.045 233.634 C 220.304 236.051 221.242 237.959 222.891 239.675 C 228.726 245.735 234.58 251.777 240.984 257.222 C 241.657 257.793 242.34 258.362 243.067 258.856 C 244.801 260.043 246.201 259.554 246.8 257.486 C 247.101 256.456 247.272 255.361 247.321 254.282 C 247.426 251.987 247.366 249.681 247.476 247.383 C 247.536 246.122 247.101 245.232 246.231 244.36 C 238.819 236.929 231.444 229.458 224.058 222 C 221.965 219.89 219.886 217.765 217.762 215.686 C 217.006 214.948 216.615 214.124 216.369 213.073 C 215.343 208.724 215.462 204.311 215.532 199.907 C 215.556 198.325 215.08 197.284 213.785 196.422 C 209.997 193.898 207.963 190.201 207.207 185.704 C 207.112 185.137 207.012 184.571 206.892 184.007 C 206.046 179.997 205.244 175.986 206.709 171.617 C 206.089 171.863 205.737 171.911 205.505 172.106 C 200.929 175.953 197.057 180.452 193.883 185.556 C 189.343 192.857 186.042 200.722 184.521 209.232 C 183.659 214.056 183.069 218.988 182.964 223.886 C 182.65 238.264 182.513 252.65 182.548 267.034 C 182.577 280.011 182.859 292.987 183.161 305.961 C 183.294 311.714 183.663 317.481 185.131 323.068 C 185.906 326.016 186.94 328.921 188.145 331.715 C 188.859 333.372 189.984 334.917 191.188 336.27 C 195.449 341.064 200.671 344.53 206.252 347.525 C 208.392 348.677 210.374 350.17 212.331 351.645 C 214.384 353.198 215.684 355.412 216.849 357.691 C 217.513 358.99 217.624 360.342 217.246 361.782 C 216.598 364.274 215.504 366.54 214.085 368.897 C 213.661 368.479 213.262 368.191 213.003 367.805 C 212.649 367.283 212.31 366.716 212.129 366.115 C 211.08 362.618 208.381 361.047 205.241 360.3 C 201.229 359.348 197.161 358.625 193.085 358.005 C 187.891 357.213 182.657 356.708 177.466 355.91 C 174.941 355.522 172.446 354.851 169.986 354.131 C 166.604 353.146 163.816 351.053 161.259 348.672 C 158.877 346.451 158.017 343.59 158.302 340.338 C 158.631 336.589 160.012 333.152 161.303 329.689 C 162.58 326.273 162.557 327.359 160.79 324.518 C 159.786 322.898 158.685 321.334 157.78 319.659 C 156.97 318.157 156.232 316.584 155.7 314.958 C 154.978 312.754 155.136 310.584 156.409 308.521 C 157.648 306.513 157.571 306.259 156.087 304.505 C 155.186 303.444 154.273 302.393 153.357 301.346 C 152.105 299.91 151.604 298.341 152.153 296.398 C 152.996 293.422 153.196 290.363 152.835 287.278 C 152.77 286.71 152.603 286.153 152.541 285.585 C 152.394 284.238 151.713 283.598 150.366 283.432 C 148.616 283.218 147.213 282.177 146.082 280.872 C 144.591 279.152 143.167 277.363 141.832 275.514 C 140.469 273.621 140.148 271.428 140.481 269.121 C 140.982 265.623 142.523 262.561 144.325 259.624 C 147.162 255 150.636 250.887 154.239 246.883 C 156.61 244.249 158.973 241.61 161.393 239.021 C 162.193 238.167 162.498 237.319 162.362 236.112 C 161.839 231.476 161.347 226.835 160.991 222.184 C 159.696 205.275 162.752 189.252 170.282 174.095 C 175.067 164.457 181.268 155.959 189.158 148.782 C 194.561 143.872 200.579 139.871 207.092 136.654 C 215.603 132.447 224.569 129.65 233.916 128.389 C 238.728 127.743 243.656 127.641 248.517 127.806 C 254.441 128.005 260.375 128.561 266.264 129.301 C 272.544 130.093 278.623 131.89 284.625 133.923 C 298.934 138.765 311.853 146.117 323.192 156.288 C 330.625 162.954 336.897 170.64 341.985 179.314 C 349.132 191.495 353.1 204.669 353.796 218.885 C 354.176 226.576 354.007 234.23 352.756 241.828 C 351.38 250.182 349.14 258.315 345.617 265.987 C 341.476 275.006 336.995 283.867 332.683 292.807 C 331.302 295.675 329.976 298.57 328.637 301.458 C 327.222 304.502 326.433 307.707 326.472 311.092 C 326.521 315.568 326.532 320.042 326.687 324.513 C 326.797 327.676 327.666 330.682 328.975 333.553 C 330.19 336.218 331.418 338.878 332.555 341.577 C 333.291 343.323 332.487 345.009 330.707 345.628 C 330.394 345.734 329.937 345.685 329.645 345.523 C 324.344 342.565 319.293 339.289 315.793 334.049 C 312.83 329.609 311.697 324.641 311.631 319.354 C 311.56 313.919 312.579 308.647 314.358 303.569 C 317.389 294.909 320.561 286.294 323.781 277.707 C 326.713 269.888 329.692 262.091 331.565 253.908 C 332.538 249.667 333.206 245.368 333.335 241.018 C 333.474 236.358 333.439 231.685 333.342 227.021 C 333.237 221.907 331.829 217.072 330.056 212.326 C 328.154 207.242 326.029 202.264 323.376 197.547 C 320.06 191.654 316.141 186.2 311.529 181.291 C 308.226 177.779 304.698 174.509 300.78 171.747 C 297.805 169.645 294.678 167.75 291.529 165.923 C 287.219 163.423 282.581 161.621 277.868 160.128 C 272.913 158.557 267.824 157.505 262.651 156.886 C 256.479 156.149 250.292 156.005 244.115 156.494 C 237.037 157.056 230.156 158.654 223.508 161.236 C 223.047 161.413 222.62 161.68 221.872 162.059 C 222.53 162.317 222.929 162.531 223.35 162.625 C 227.191 163.478 230.17 165.715 232.671 168.696 C 233.588 169.788 234.132 171.108 234.213 172.542 C 234.478 177.2 234.667 181.858 234.909 186.518 C 235.056 189.423 233.969 191.729 231.803 193.572 C 230.841 194.386 229.97 195.317 229.01 196.128 C 226.923 197.893 226.139 200.18 226.043 202.887 C 225.977 204.728 226.394 206.113 227.784 207.435 C 233.096 212.484 238.277 217.676 243.529 222.794 C 244.371 223.613 245.317 224.324 246.224 225.092 C 247.984 222.404 247.396 219.541 244.963 218.063 C 243.248 217.02 241.533 216.007 240.181 214.418 C 238.255 212.15 237.263 209.513 236.972 206.6 C 236.72 204.057 236.544 201.497 236.527 198.945 C 236.489 192.923 238.733 187.994 243.656 184.538 C 246.375 182.628 249.449 181.999 252.743 182.256 C 261.094 182.907 266.518 190.968 266.385 198.558 C 266.327 201.868 266.038 205.196 265.552 208.472 C 265.041 211.906 263.178 214.61 260.303 216.519 C 259.204 217.252 258.084 217.955 256.937 218.606 C 256.327 218.955 255.991 219.359 256 220.103 C 256.059 225.6 256.096 231.098 256.148 236.598 C 256.151 236.765 256.272 236.933 256.399 237.252 C 256.786 236.968 257.154 236.772 257.431 236.487 C 263.609 230.143 269.769 223.779 275.949 217.441 C 276.607 216.77 276.996 216.092 276.964 215.098 C 276.821 210.752 276.74 206.405 276.627 202.059 C 276.57 199.965 275.772 198.473 274.011 197.108 C 270.186 194.143 268.089 190.08 268.299 185.021 C 268.383 182.978 268.7 180.945 268.731 178.902 C 268.816 173.082 273.358 167.952 279.043 166.519 C 282.707 165.596 286.13 166.377 289.314 168.295 C 291.702 169.731 293.097 171.982 293.757 174.691 C 294.462 177.58 294.507 180.529 294.108 183.455 C 293.792 185.795 293.225 188.097 292.832 190.426 C 292.578 191.942 291.902 193.203 290.834 194.242 C 289.791 195.255 288.748 196.276 287.606 197.163 C 286.66 197.9 286.328 198.737 286.349 199.944 C 286.446 205.953 286.554 211.962 286.464 217.971 C 286.428 220.441 285.969 222.913 285.577 225.362 C 285.476 225.992 285.013 226.641 284.55 227.115 C 275.262 236.697 266.155 246.466 256.297 255.455 C 255.525 256.159 254.833 256.96 253.983 257.842 C 255.703 258.789 257.346 259.149 258.98 259.355 C 259.621 259.437 260.45 258.994 261.008 258.551 C 262.687 257.219 264.38 255.88 265.875 254.351 C 274.498 245.531 283.059 236.655 291.661 227.817 C 292.333 227.128 292.566 226.388 292.614 225.435 C 292.83 221.068 293.613 216.767 295.287 212.764 C 298.253 205.671 306.099 202.828 312.89 206.186 C 318.018 208.722 320.554 213.153 321.273 218.751 C 321.422 219.909 321.192 221.191 320.848 222.324 C 320.128 224.703 319.295 227.052 318.364 229.354 C 315.978 235.276 309.948 238.974 303.757 238.096 C 301.212 237.734 299.209 238.35 297.417 240.073 C 295.048 242.349 292.624 244.57 290.344 246.937 C 283.896 253.635 277.504 260.391 271.11 267.143 C 270.298 267.996 269.601 268.96 268.668 270.099 C 269.514 270.539 270.064 270.963 270.679 271.111 C 271.646 271.344 272.653 271.49 273.646 271.499 C 277.773 271.532 281.904 271.473 286.029 271.511 C 287.026 271.52 287.656 271.057 288.276 270.372 C 290.354 268.072 292.495 265.828 294.546 263.501 C 296.567 261.214 299.027 260.161 302.037 260.238 C 304.863 260.308 307.643 260.481 310.317 261.58 C 316.569 264.145 319.504 270.089 319.191 276.004 C 318.879 281.927 316.482 287.105 312.28 291.091 C 306.109 296.946 295.712 296.503 290.568 289.197 C 289.984 288.367 289.404 287.535 288.856 286.676 C 288.202 285.66 287.339 284.995 286.134 284.857 C 285.386 284.772 284.641 284.587 283.899 284.602 C 279.71 284.688 275.524 284.807 271.339 284.951 C 270.74 284.97 270.144 285.162 269.568 285.271 C 269.436 286.357 270.132 286.863 270.613 287.355 C 273.712 290.509 276.847 293.633 280.022 296.709 C 281.972 298.597 284.319 299.363 287.043 299.373 C 288.95 299.38 290.938 299.653 292.752 300.243 C 299.509 302.436 302.869 309.986 300.713 316.407 C 300.57 316.83 300.421 317.253 300.205 317.805 M 244.044 274.428 C 243.962 275.184 243.74 275.956 243.821 276.693 C 244.514 283.063 251.735 286.343 256.694 282.443 C 259.999 279.846 260.061 277.891 257.405 274.773 C 257.202 274.536 256.95 274.338 256.725 274.119 C 255.469 272.879 254.218 271.636 252.961 270.4 C 252.423 269.871 251.907 269.306 251.322 268.835 C 249.372 267.276 247.684 267.493 246.143 269.454 C 245.06 270.828 244.458 272.416 244.044 274.428 M 304.226 281.848 C 305.271 281.472 306.36 281.186 307.341 280.682 C 307.729 280.483 308.171 279.745 308.094 279.353 C 307.595 276.807 306.029 275.028 303.76 273.992 C 301.816 273.105 300.31 274.335 298.826 275.408 C 298.116 275.92 297.998 276.55 298.26 277.404 C 299.055 280.007 301.033 281.6 304.226 281.848 M 281.55 368.451 C 282.815 367.925 283.054 366.869 282.937 365.634 C 282.796 364.135 282.092 363.023 280.795 362.274 C 278.927 361.195 276.775 361.826 275.676 363.814 C 274.937 365.15 275.712 367.218 277.315 368.195 C 278.58 368.964 279.918 368.925 281.55 368.451 M 250.167 198.896 C 248.686 199.303 247.399 199.953 246.832 201.518 C 249.479 204.76 254.065 204.723 256.227 201.412 C 254.827 199.371 252.923 198.495 250.167 198.896 M 220.893 332.172 C 223.148 332.371 224.272 331.416 224.622 328.904 C 223.57 328.258 222.419 328.235 221.233 328.489 C 220.311 328.686 219.3 328.848 219.073 330.004 C 218.83 331.246 219.856 331.588 220.893 332.172 M 221.8 182.239 C 222.814 181.863 223.704 181.363 223.949 180.184 C 221.588 178.074 219.232 178.333 217.649 180.893 C 218.726 181.979 220.083 182.251 221.8 182.239 M 307.311 223.238 C 307.958 223.202 308.688 223.451 309.132 222.709 C 308.085 220.891 306.061 220.413 304.176 221.616 C 304.902 222.604 305.894 223.008 307.311 223.238 Z" style=""/>
  <path fill="#090909" opacity="1.000000" stroke="none" d="M 244.071 274.274 C 244.458 272.416 245.06 270.828 246.143 269.454 C 247.684 267.493 249.372 267.276 251.322 268.835 C 251.907 269.306 252.423 269.871 252.961 270.4 C 254.218 271.636 255.469 272.879 256.725 274.119 C 256.95 274.338 257.202 274.536 257.405 274.773 C 260.061 277.891 259.999 279.846 256.694 282.443 C 251.735 286.343 244.514 283.063 243.821 276.693 C 243.74 275.956 243.962 275.184 244.071 274.274 Z" style="fill-opacity: 0;"/>
  <path fill="#101010" opacity="1.000000" stroke="none" d="M 304.071 281.849 C 301.033 281.6 299.055 280.007 298.26 277.404 C 297.998 276.55 298.116 275.92 298.826 275.408 C 300.31 274.335 301.816 273.105 303.76 273.992 C 306.029 275.028 307.595 276.807 308.094 279.353 C 308.171 279.745 307.729 280.483 307.341 280.682 C 306.36 281.186 305.271 281.472 304.071 281.849 Z" style="fill-opacity: 0;"/>
  <path fill="#111010" opacity="1.000000" stroke="none" d="M 281.416 368.511 C 279.918 368.925 278.58 368.964 277.315 368.196 C 275.712 367.218 274.937 365.15 275.676 363.814 C 276.775 361.826 278.927 361.195 280.795 362.274 C 282.092 363.023 282.796 364.135 282.937 365.634 C 283.054 366.869 282.815 367.925 281.416 368.511 Z" style="fill-opacity: 0;"/>
  <path fill="#171616" opacity="1.000000" stroke="none" d="M 250.318 198.866 C 252.923 198.495 254.827 199.371 256.227 201.412 C 254.065 204.723 249.479 204.76 246.832 201.518 C 247.399 199.953 248.686 199.303 250.318 198.866 Z" style="fill-opacity: 0;"/>
  <path fill="#201F1F" opacity="1.000000" stroke="none" d="M 220.769 332.123 C 219.856 331.588 218.83 331.246 219.073 330.004 C 219.3 328.848 220.311 328.686 221.233 328.489 C 222.419 328.235 223.57 328.258 224.622 328.904 C 224.272 331.416 223.148 332.371 220.769 332.123 Z" style="fill-opacity: 0;"/>
  <path fill="#242222" opacity="1.000000" stroke="none" d="M 221.664 182.261 C 220.083 182.251 218.726 181.979 217.649 180.893 C 219.232 178.333 221.588 178.074 223.949 180.184 C 223.704 181.363 222.814 181.863 221.664 182.261 Z" style="fill-opacity: 0;"/>
  <path fill="#383636" opacity="1.000000" stroke="none" d="M 307.161 223.219 C 305.894 223.008 304.902 222.604 304.176 221.616 C 306.061 220.413 308.085 220.891 309.132 222.709 C 308.688 223.451 307.958 223.202 307.161 223.219 Z" style="fill-opacity: 0;"/>
</svg>