<svg version="1.1" id="Layer_1" xmlns="http://www.w3.org/2000/svg" xmlns:xlink="http://www.w3.org/1999/xlink" x="0px" y="0px"
	 width="100%" viewBox="0 0 2669 2609" enable-background="new 0 0 2669 2609" xml:space="preserve">
<path fill="#010101" opacity="1.000000" stroke="none" 
	d="
M2672.000000,956.000000 
	C2672.000000,1508.666626 2672.000000,2060.333252 2672.000000,2612.000000 
	C1782.000244,2612.000000 892.000488,2612.000000 2.000580,2612.000000 
	C2.000387,1742.000366 2.000387,872.000854 2.000194,2.000931 
	C891.999451,2.000620 1781.998901,2.000620 2671.999023,2.000310 
	C2672.000000,319.666656 2672.000000,637.333313 2672.000000,956.000000 
M130.143768,1202.123901 
	C128.695938,1217.719238 126.903534,1233.291504 125.857384,1248.913696 
	C120.000908,1336.368286 123.552597,1423.483765 136.859436,1510.100098 
	C148.219284,1584.043091 166.419891,1656.308228 191.424469,1726.895020 
	C234.178055,1847.586060 294.873840,1958.453003 372.634125,2060.039551 
	C430.831757,2136.069092 497.364655,2204.052734 571.964539,2264.032959 
	C683.677612,2353.853271 807.586731,2421.562744 943.266846,2467.818359 
	C1004.573853,2488.718994 1067.166626,2504.580811 1130.955200,2515.519287 
	C1176.288574,2523.292725 1221.969971,2528.350342 1267.944214,2531.020264 
	C1361.533569,2536.455811 1454.502686,2531.198975 1546.804688,2515.263428 
	C1610.567261,2504.255127 1673.117920,2488.255859 1734.309448,2466.976318 
	C1787.247559,2448.566650 1838.811401,2427.004150 1888.777710,2401.640869 
	C1987.386719,2351.586670 2077.657471,2289.409912 2159.496582,2215.020020 
	C2168.575684,2206.767334 2177.528564,2198.375977 2186.372803,2190.203369 
	C2230.968994,2217.652832 2271.005127,2203.043701 2290.058350,2182.653076 
	C2322.963623,2147.437256 2320.650391,2109.895508 2294.062256,2072.669922 
	C2294.573486,2071.267334 2294.673340,2070.556641 2295.044922,2070.042725 
	C2297.581787,2066.535156 2300.123535,2063.028564 2302.759277,2059.594971 
	C2399.310547,1933.811768 2468.397705,1794.394653 2510.144531,1641.446899 
	C2531.620117,1562.765991 2544.925537,1482.672607 2549.927246,1401.281738 
	C2558.302002,1265.008545 2544.130615,1131.110718 2506.802002,999.692993 
	C2479.156982,902.366394 2439.593018,810.149048 2388.537354,722.869385 
	C2341.578613,642.593201 2286.091553,568.699402 2222.090820,501.153229 
	C2155.523193,430.898041 2081.701660,369.410797 2000.358276,317.056488 
	C1920.471436,265.639740 1835.682129,224.139755 1746.028809,192.506546 
	C1647.139038,157.614395 1545.477173,135.777252 1441.062988,126.819870 
	C1339.629761,118.118248 1238.604248,122.087463 1138.164917,138.661774 
	C1069.678589,149.963257 1002.592712,167.024277 937.018921,189.893356 
	C845.692688,221.743713 759.389160,263.921692 678.057495,316.225403 
	C576.161377,381.753876 485.858673,460.545319 407.532288,553.045959 
	C352.190399,618.402710 304.367279,688.876343 264.218750,764.453125 
	C220.445206,846.853943 186.561768,933.214722 162.942505,1023.557434 
	C147.745956,1081.683838 136.586639,1140.535034 130.143768,1202.123901 
z"/>
<path fill="#EDEEEE" opacity="1.000000" stroke="none" 
	d="
M130.232834,1201.211914 
	C136.586639,1140.535034 147.745956,1081.683838 162.942505,1023.557434 
	C186.561768,933.214722 220.445206,846.853943 264.218750,764.453125 
	C304.367279,688.876343 352.190399,618.402710 407.532288,553.045959 
	C485.858673,460.545319 576.161377,381.753876 678.057495,316.225403 
	C759.389160,263.921692 845.692688,221.743713 937.018921,189.893356 
	C1002.592712,167.024277 1069.678589,149.963257 1138.164917,138.661774 
	C1238.604248,122.087463 1339.629761,118.118248 1441.062988,126.819870 
	C1545.477173,135.777252 1647.139038,157.614395 1746.028809,192.506546 
	C1835.682129,224.139755 1920.471436,265.639740 2000.358276,317.056488 
	C2081.701660,369.410797 2155.523193,430.898041 2222.090820,501.153229 
	C2286.091553,568.699402 2341.578613,642.593201 2388.537354,722.869385 
	C2439.593018,810.149048 2479.156982,902.366394 2506.802002,999.692993 
	C2544.130615,1131.110718 2558.302002,1265.008545 2549.927246,1401.281738 
	C2544.925537,1482.672607 2531.620117,1562.765991 2510.144531,1641.446899 
	C2468.397705,1794.394653 2399.310547,1933.811768 2302.759277,2059.594971 
	C2300.123535,2063.028564 2297.581787,2066.535156 2295.044922,2070.042725 
	C2294.673340,2070.556641 2294.573486,2071.267334 2294.062256,2072.669922 
	C2320.650391,2109.895508 2322.963623,2147.437256 2290.058350,2182.653076 
	C2271.005127,2203.043701 2230.968994,2217.652832 2186.372803,2190.203369 
	C2177.528564,2198.375977 2168.575684,2206.767334 2159.496582,2215.020020 
	C2077.657471,2289.409912 1987.386719,2351.586670 1888.777710,2401.640869 
	C1838.811401,2427.004150 1787.247559,2448.566650 1734.309448,2466.976318 
	C1673.117920,2488.255859 1610.567261,2504.255127 1546.804688,2515.263428 
	C1454.502686,2531.198975 1361.533569,2536.455811 1267.944214,2531.020264 
	C1221.969971,2528.350342 1176.288574,2523.292725 1130.955200,2515.519287 
	C1067.166626,2504.580811 1004.573853,2488.718994 943.266846,2467.818359 
	C807.586731,2421.562744 683.677612,2353.853271 571.964539,2264.032959 
	C497.364655,2204.052734 430.831757,2136.069092 372.634125,2060.039551 
	C294.873840,1958.453003 234.178055,1847.586060 191.424469,1726.895020 
	C166.419891,1656.308228 148.219284,1584.043091 136.859436,1510.100098 
	C123.552597,1423.483765 120.000908,1336.368286 125.857384,1248.913696 
	C126.903534,1233.291504 128.695938,1217.719238 130.232834,1201.211914 
M279.739380,777.040405 
	C264.106018,810.539978 247.375031,843.577271 233.037582,877.622559 
	C182.659363,997.249390 154.337524,1122.214355 145.507278,1251.603027 
	C139.652588,1337.390991 143.467743,1422.856445 156.544388,1507.834961 
	C170.489670,1598.458618 194.728836,1686.314941 229.427658,1771.199219 
	C263.734222,1855.123657 307.047607,1934.122559 359.334503,2008.262817 
	C426.077820,2102.901123 504.937500,2185.920654 595.902222,2257.533691 
	C654.998779,2304.058105 718.012146,2344.518799 784.836731,2378.927002 
	C849.836121,2412.395508 917.366943,2439.654541 987.402771,2460.935547 
	C1072.271118,2486.723389 1158.853149,2502.872803 1247.195312,2509.689941 
	C1343.002075,2517.082764 1438.305542,2512.668213 1533.171509,2497.149658 
	C1605.386963,2485.336426 1675.815430,2466.916260 1744.612793,2442.150146 
	C1816.915771,2416.121826 1886.014893,2383.340088 1952.046143,2343.977539 
	C2028.796265,2298.226074 2099.501709,2244.572266 2164.411133,2183.224121 
	C2167.027100,2180.751953 2169.396240,2178.018799 2172.231445,2175.038330 
	C2160.561768,2159.785645 2154.829590,2143.066406 2154.961914,2124.431152 
	C2155.097412,2105.303223 2161.730957,2088.583984 2173.973877,2074.096191 
	C2184.617432,2061.501221 2198.215332,2053.587158 2214.117432,2049.244629 
	C2236.394287,2043.161865 2256.944092,2048.194824 2277.185059,2059.002197 
	C2279.802002,2055.988770 2282.301514,2053.375244 2284.506104,2050.532959 
	C2361.724609,1950.975586 2421.418457,1841.798950 2463.749756,1723.157104 
	C2497.743896,1627.881104 2519.298828,1529.823975 2527.947266,1429.030029 
	C2540.593506,1281.648560 2526.694092,1136.852417 2484.906738,994.819153 
	C2446.628906,864.714050 2387.331299,744.970032 2307.984375,635.094360 
	C2262.185547,571.674561 2210.530029,513.413696 2153.189453,460.188354 
	C2094.365479,405.585693 2030.597534,357.538483 1961.976807,315.940155 
	C1900.563599,278.711090 1836.232788,247.445587 1769.193970,221.679398 
	C1711.536133,199.518845 1652.504761,181.923920 1592.165527,168.933533 
	C1518.359131,153.043762 1443.632446,144.104614 1368.138672,142.162567 
	C1280.184570,139.899948 1192.971313,147.199585 1106.638062,164.107376 
	C1024.641357,180.165909 945.151001,204.508698 868.268738,237.371246 
	C741.434448,291.585266 626.970825,365.036163 525.352600,458.256500 
	C425.442047,549.910339 343.925995,655.902100 279.739380,777.040405 
z"/>
<path fill="#030303" opacity="1.000000" stroke="none" 
	d="
M280.080383,776.378906 
	C343.925995,655.902100 425.442047,549.910339 525.352600,458.256500 
	C626.970825,365.036163 741.434448,291.585266 868.268738,237.371246 
	C945.151001,204.508698 1024.641357,180.165909 1106.638062,164.107376 
	C1192.971313,147.199585 1280.184570,139.899948 1368.138672,142.162567 
	C1443.632446,144.104614 1518.359131,153.043762 1592.165527,168.933533 
	C1652.504761,181.923920 1711.536133,199.518845 1769.193970,221.679398 
	C1836.232788,247.445587 1900.563599,278.711090 1961.976807,315.940155 
	C2030.597534,357.538483 2094.365479,405.585693 2153.189453,460.188354 
	C2210.530029,513.413696 2262.185547,571.674561 2307.984375,635.094360 
	C2387.331299,744.970032 2446.628906,864.714050 2484.906738,994.819153 
	C2526.694092,1136.852417 2540.593506,1281.648560 2527.947266,1429.030029 
	C2519.298828,1529.823975 2497.743896,1627.881104 2463.749756,1723.157104 
	C2421.418457,1841.798950 2361.724609,1950.975586 2284.506104,2050.532959 
	C2282.301514,2053.375244 2279.802002,2055.988770 2277.185059,2059.002197 
	C2256.944092,2048.194824 2236.394287,2043.161865 2214.117432,2049.244629 
	C2198.215332,2053.587158 2184.617432,2061.501221 2173.973877,2074.096191 
	C2161.730957,2088.583984 2155.097412,2105.303223 2154.961914,2124.431152 
	C2154.829590,2143.066406 2160.561768,2159.785645 2172.231445,2175.038330 
	C2169.396240,2178.018799 2167.027100,2180.751953 2164.411133,2183.224121 
	C2099.501709,2244.572266 2028.796265,2298.226074 1952.046143,2343.977539 
	C1886.014893,2383.340088 1816.915771,2416.121826 1744.612793,2442.150146 
	C1675.815430,2466.916260 1605.386963,2485.336426 1533.171509,2497.149658 
	C1438.305542,2512.668213 1343.002075,2517.082764 1247.195312,2509.689941 
	C1158.853149,2502.872803 1072.271118,2486.723389 987.402771,2460.935547 
	C917.366943,2439.654541 849.836121,2412.395508 784.836731,2378.927002 
	C718.012146,2344.518799 654.998779,2304.058105 595.902222,2257.533691 
	C504.937500,2185.920654 426.077820,2102.901123 359.334503,2008.262817 
	C307.047607,1934.122559 263.734222,1855.123657 229.427658,1771.199219 
	C194.728836,1686.314941 170.489670,1598.458618 156.544388,1507.834961 
	C143.467743,1422.856445 139.652588,1337.390991 145.507278,1251.603027 
	C154.337524,1122.214355 182.659363,997.249390 233.037582,877.622559 
	C247.375031,843.577271 264.106018,810.539978 280.080383,776.378906 
M2050.072754,2121.016846 
	C2107.524414,2070.362061 2159.177490,2014.348999 2204.581055,1952.672852 
	C2262.404053,1874.126587 2308.559326,1789.199951 2343.080322,1697.929077 
	C2377.958740,1605.713257 2399.770996,1510.513550 2408.381592,1412.354126 
	C2417.026123,1313.806519 2411.650146,1215.941040 2392.693848,1118.814087 
	C2374.457275,1025.376099 2344.125488,936.023987 2301.875000,850.778503 
	C2261.126709,768.564209 2210.602295,692.803772 2150.361328,623.508850 
	C2103.181641,569.238037 2051.098389,520.248657 1994.055664,476.501343 
	C1898.776489,403.429474 1794.028076,348.206482 1680.141968,310.309296 
	C1601.735962,284.218597 1521.393555,267.384247 1439.091431,259.503479 
	C1345.954834,250.585190 1253.301147,254.083466 1161.109619,269.342621 
	C1092.569580,280.687073 1025.780151,298.801056 960.672302,323.190277 
	C864.865051,359.079437 775.902710,407.459412 693.815979,468.473389 
	C636.667175,510.951355 584.253784,558.650208 536.599792,611.590088 
	C483.532715,670.543579 437.608826,734.620667 398.935394,803.835266 
	C366.186218,862.447205 339.375793,923.714233 318.125000,987.434021 
	C294.847778,1057.229858 278.859375,1128.661011 270.399506,1201.695435 
	C262.517944,1269.737427 261.358704,1337.948608 266.772614,1406.309570 
	C272.078674,1473.308960 283.542938,1539.203125 301.435638,1603.901245 
	C325.709015,1691.671143 360.603149,1775.088379 406.236542,1853.980225 
	C454.578064,1937.554199 513.017944,2013.278687 581.757080,2081.074951 
	C620.745911,2119.529297 662.407837,2154.801514 706.850159,2186.799316 
	C709.981750,2189.054199 712.783875,2191.766846 715.579468,2194.131592 
	C714.780640,2196.362793 714.357971,2197.610840 713.889587,2198.841553 
	C706.099792,2219.308350 705.362976,2239.902100 713.956848,2260.211182 
	C737.389038,2315.586426 809.737061,2324.510254 846.748047,2280.603027 
	C848.383545,2278.662842 850.374329,2277.022461 852.130371,2275.309570 
	C854.701721,2276.410156 856.566223,2277.105225 858.340515,2277.982666 
	C911.312317,2304.184082 966.140991,2325.709717 1022.654846,2342.920898 
	C1071.792603,2357.885986 1121.689697,2369.786377 1172.553711,2377.005371 
	C1203.871094,2381.450439 1235.345947,2385.337891 1266.885010,2387.548584 
	C1321.804565,2391.398682 1376.771240,2390.604736 1431.672607,2385.746094 
	C1477.211426,2381.716064 1522.332886,2375.000000 1566.949951,2365.195801 
	C1621.682739,2353.168701 1675.192749,2336.982666 1727.470947,2316.681152 
	C1802.322021,2287.613770 1873.011719,2250.626709 1939.700684,2205.979980 
	C1977.962524,2180.364502 2014.330933,2152.247559 2050.072754,2121.016846 
z"/>
<path fill="#EBECEC" opacity="1.000000" stroke="none" 
	d="
M2049.526855,2121.466797 
	C2014.330933,2152.247559 1977.962524,2180.364502 1939.700684,2205.979980 
	C1873.011719,2250.626709 1802.322021,2287.613770 1727.470947,2316.681152 
	C1675.192749,2336.982666 1621.682739,2353.168701 1566.949951,2365.195801 
	C1522.332886,2375.000000 1477.211426,2381.716064 1431.672607,2385.746094 
	C1376.771240,2390.604736 1321.804565,2391.398682 1266.885010,2387.548584 
	C1235.345947,2385.337891 1203.871094,2381.450439 1172.553711,2377.005371 
	C1121.689697,2369.786377 1071.792603,2357.885986 1022.654846,2342.920898 
	C966.140991,2325.709717 911.312317,2304.184082 858.340515,2277.982666 
	C856.566223,2277.105225 854.701721,2276.410156 852.130371,2275.309570 
	C850.374329,2277.022461 848.383545,2278.662842 846.748047,2280.603027 
	C809.737061,2324.510254 737.389038,2315.586426 713.956848,2260.211182 
	C705.362976,2239.902100 706.099792,2219.308350 713.889587,2198.841553 
	C714.357971,2197.610840 714.780640,2196.362793 715.579468,2194.131592 
	C712.783875,2191.766846 709.981750,2189.054199 706.850159,2186.799316 
	C662.407837,2154.801514 620.745911,2119.529297 581.757080,2081.074951 
	C513.017944,2013.278687 454.578064,1937.554199 406.236542,1853.980225 
	C360.603149,1775.088379 325.709015,1691.671143 301.435638,1603.901245 
	C283.542938,1539.203125 272.078674,1473.308960 266.772614,1406.309570 
	C261.358704,1337.948608 262.517944,1269.737427 270.399506,1201.695435 
	C278.859375,1128.661011 294.847778,1057.229858 318.125000,987.434021 
	C339.375793,923.714233 366.186218,862.447205 398.935394,803.835266 
	C437.608826,734.620667 483.532715,670.543579 536.599792,611.590088 
	C584.253784,558.650208 636.667175,510.951355 693.815979,468.473389 
	C775.902710,407.459412 864.865051,359.079437 960.672302,323.190277 
	C1025.780151,298.801056 1092.569580,280.687073 1161.109619,269.342621 
	C1253.301147,254.083466 1345.954834,250.585190 1439.091431,259.503479 
	C1521.393555,267.384247 1601.735962,284.218597 1680.141968,310.309296 
	C1794.028076,348.206482 1898.776489,403.429474 1994.055664,476.501343 
	C2051.098389,520.248657 2103.181641,569.238037 2150.361328,623.508850 
	C2210.602295,692.803772 2261.126709,768.564209 2301.875000,850.778503 
	C2344.125488,936.023987 2374.457275,1025.376099 2392.693848,1118.814087 
	C2411.650146,1215.941040 2417.026123,1313.806519 2408.381592,1412.354126 
	C2399.770996,1510.513550 2377.958740,1605.713257 2343.080322,1697.929077 
	C2308.559326,1789.199951 2262.404053,1874.126587 2204.581055,1952.672852 
	C2159.177490,2014.348999 2107.524414,2070.362061 2049.526855,2121.466797 
M2035.407471,2110.470459 
	C2087.234863,2065.616455 2133.857910,2015.853638 2175.858398,1961.716675 
	C2243.410889,1874.644897 2295.722168,1779.143677 2332.998291,1675.521729 
	C2360.616211,1598.748901 2379.005371,1519.732544 2388.278809,1438.586548 
	C2398.750244,1346.957153 2396.951660,1255.558960 2383.137939,1164.479980 
	C2373.172363,1098.773682 2356.812744,1034.573120 2334.385498,971.940491 
	C2287.629883,841.366577 2217.940674,724.403198 2125.272217,621.339844 
	C2032.570923,518.240234 1923.501221,436.695923 1798.384155,376.787140 
	C1687.953369,323.910431 1571.775391,291.055511 1450.093628,277.969025 
	C1371.604126,269.527740 1293.116455,270.113556 1214.646606,279.375061 
	C1146.246216,287.448151 1079.283447,301.946198 1013.793762,323.041046 
	C920.332458,353.145782 832.591064,395.279724 750.798706,449.724304 
	C648.553833,517.782959 560.496582,600.784058 487.284851,699.457520 
	C397.380219,820.629395 337.029724,955.188660 304.640869,1102.444824 
	C291.721100,1161.184814 284.085999,1220.615723 281.653809,1280.662720 
	C277.635956,1379.855225 287.601776,1477.671997 311.640533,1574.045288 
	C328.226166,1640.538574 351.019470,1704.809326 380.184113,1766.800659 
	C418.685394,1848.637817 466.867126,1924.316895 524.918579,1993.716553 
	C581.660950,2061.551025 645.760620,2121.440186 717.630371,2172.990967 
	C720.235535,2174.859619 723.065308,2176.415039 725.900452,2178.185303 
	C756.304749,2148.511230 790.618713,2139.839844 827.310425,2161.552246 
	C864.570068,2183.600830 872.487610,2218.479004 861.009827,2259.049561 
	C863.949402,2260.739502 866.436768,2262.355957 869.078003,2263.660645 
	C933.222290,2295.343994 1000.057617,2319.845215 1069.235474,2337.898193 
	C1129.976562,2353.749512 1191.653809,2364.194824 1254.283691,2369.104736 
	C1343.137207,2376.070557 1431.465088,2371.929199 1519.229736,2356.746094 
	C1561.918213,2349.361328 1603.974365,2339.111328 1645.469116,2326.520996 
	C1710.062866,2306.922119 1772.175537,2281.340576 1831.877319,2249.922607 
	C1904.713623,2211.593018 1972.348389,2165.607666 2035.407471,2110.470459 
z"/>
<path fill="#030303" opacity="1.000000" stroke="none" 
	d="
M2034.875977,2110.938477 
	C1972.348389,2165.607666 1904.713623,2211.593018 1831.877319,2249.922607 
	C1772.175537,2281.340576 1710.062866,2306.922119 1645.469116,2326.520996 
	C1603.974365,2339.111328 1561.918213,2349.361328 1519.229736,2356.746094 
	C1431.465088,2371.929199 1343.137207,2376.070557 1254.283691,2369.104736 
	C1191.653809,2364.194824 1129.976562,2353.749512 1069.235474,2337.898193 
	C1000.057617,2319.845215 933.222290,2295.343994 869.078003,2263.660645 
	C866.436768,2262.355957 863.949402,2260.739502 861.009827,2259.049561 
	C872.487610,2218.479004 864.570068,2183.600830 827.310425,2161.552246 
	C790.618713,2139.839844 756.304749,2148.511230 725.900452,2178.185303 
	C723.065308,2176.415039 720.235535,2174.859619 717.630371,2172.990967 
	C645.760620,2121.440186 581.660950,2061.551025 524.918579,1993.716553 
	C466.867126,1924.316895 418.685394,1848.637817 380.184113,1766.800659 
	C351.019470,1704.809326 328.226166,1640.538574 311.640533,1574.045288 
	C287.601776,1477.671997 277.635956,1379.855225 281.653809,1280.662720 
	C284.085999,1220.615723 291.721100,1161.184814 304.640869,1102.444824 
	C337.029724,955.188660 397.380219,820.629395 487.284851,699.457520 
	C560.496582,600.784058 648.553833,517.782959 750.798706,449.724304 
	C832.591064,395.279724 920.332458,353.145782 1013.793762,323.041046 
	C1079.283447,301.946198 1146.246216,287.448151 1214.646606,279.375061 
	C1293.116455,270.113556 1371.604126,269.527740 1450.093628,277.969025 
	C1571.775391,291.055511 1687.953369,323.910431 1798.384155,376.787140 
	C1923.501221,436.695923 2032.570923,518.240234 2125.272217,621.339844 
	C2217.940674,724.403198 2287.629883,841.366577 2334.385498,971.940491 
	C2356.812744,1034.573120 2373.172363,1098.773682 2383.137939,1164.479980 
	C2396.951660,1255.558960 2398.750244,1346.957153 2388.278809,1438.586548 
	C2379.005371,1519.732544 2360.616211,1598.748901 2332.998291,1675.521729 
	C2295.722168,1779.143677 2243.410889,1874.644897 2175.858398,1961.716675 
	C2133.857910,2015.853638 2087.234863,2065.616455 2034.875977,2110.938477 
M1848.453979,538.722656 
	C1805.573975,510.954315 1760.789429,486.712585 1713.939697,466.333191 
	C1633.724976,431.440094 1550.363037,407.699860 1463.635010,395.941956 
	C1456.106812,394.921387 1456.124146,394.782593 1455.074341,387.579254 
	C1454.499512,383.634735 1453.738770,379.708069 1452.862915,375.818176 
	C1445.331665,342.366699 1415.030029,320.314514 1385.643311,317.540253 
	C1354.990479,314.646484 1323.358154,331.234894 1309.846924,359.231171 
	C1305.573486,368.085907 1303.108643,377.813568 1299.644287,387.628632 
	C1297.423950,387.847321 1294.814453,388.220306 1292.192993,388.345642 
	C1228.736694,391.379120 1166.208740,400.808868 1104.732178,416.670776 
	C1032.833130,435.221893 963.916992,461.789673 898.352417,496.683228 
	C796.995178,550.625732 708.222595,620.567993 632.532288,707.035278 
	C560.230469,789.631653 504.353302,882.154968 465.026062,984.577820 
	C431.720886,1071.317017 411.630920,1161.053223 405.180450,1253.842041 
	C399.788513,1331.403809 404.042175,1408.386353 418.173584,1484.786865 
	C435.823578,1580.210449 467.685486,1670.704468 513.655762,1756.188599 
	C561.567017,1845.281738 622.303833,1924.613281 695.988953,1993.885742 
	C774.650085,2067.835938 863.560669,2126.295898 962.686523,2169.294678 
	C1053.593750,2208.728271 1148.316162,2233.566895 1246.841064,2243.046143 
	C1331.498047,2251.190674 1415.877319,2248.145264 1499.777344,2233.039551 
	C1557.989624,2222.559082 1614.738403,2207.129395 1669.984619,2186.094238 
	C1762.889282,2150.720703 1848.104248,2101.931885 1925.512817,2039.526978 
	C2027.631348,1957.201660 2108.869385,1857.792236 2168.803711,1741.144165 
	C2211.266602,1658.500366 2240.557373,1571.357910 2256.985596,1479.819458 
	C2266.731445,1425.513916 2271.615234,1370.852905 2271.578857,1315.751099 
	C2271.515137,1219.021118 2256.506104,1124.607422 2226.566406,1032.612549 
	C2186.312256,908.923157 2123.067383,798.335693 2036.841309,700.960083 
	C1981.737671,638.731262 1919.317383,584.915771 1848.453979,538.722656 
z"/>
<path fill="#E9EAEA" opacity="1.000000" stroke="none" 
	d="
M1849.056396,539.125488 
	C1919.317383,584.915771 1981.737671,638.731262 2036.841309,700.960083 
	C2123.067383,798.335693 2186.312256,908.923157 2226.566406,1032.612549 
	C2256.506104,1124.607422 2271.515137,1219.021118 2271.578857,1315.751099 
	C2271.615234,1370.852905 2266.731445,1425.513916 2256.985596,1479.819458 
	C2240.557373,1571.357910 2211.266602,1658.500366 2168.803711,1741.144165 
	C2108.869385,1857.792236 2027.631348,1957.201660 1925.512817,2039.526978 
	C1848.104248,2101.931885 1762.889282,2150.720703 1669.984619,2186.094238 
	C1614.738403,2207.129395 1557.989624,2222.559082 1499.777344,2233.039551 
	C1415.877319,2248.145264 1331.498047,2251.190674 1246.841064,2243.046143 
	C1148.316162,2233.566895 1053.593750,2208.728271 962.686523,2169.294678 
	C863.560669,2126.295898 774.650085,2067.835938 695.988953,1993.885742 
	C622.303833,1924.613281 561.567017,1845.281738 513.655762,1756.188599 
	C467.685486,1670.704468 435.823578,1580.210449 418.173584,1484.786865 
	C404.042175,1408.386353 399.788513,1331.403809 405.180450,1253.842041 
	C411.630920,1161.053223 431.720886,1071.317017 465.026062,984.577820 
	C504.353302,882.154968 560.230469,789.631653 632.532288,707.035278 
	C708.222595,620.567993 796.995178,550.625732 898.352417,496.683228 
	C963.916992,461.789673 1032.833130,435.221893 1104.732178,416.670776 
	C1166.208740,400.808868 1228.736694,391.379120 1292.192993,388.345642 
	C1294.814453,388.220306 1297.423950,387.847321 1299.644287,387.628632 
	C1303.108643,377.813568 1305.573486,368.085907 1309.846924,359.231171 
	C1323.358154,331.234894 1354.990479,314.646484 1385.643311,317.540253 
	C1415.030029,320.314514 1445.331665,342.366699 1452.862915,375.818176 
	C1453.738770,379.708069 1454.499512,383.634735 1455.074341,387.579254 
	C1456.124146,394.782593 1456.106812,394.921387 1463.635010,395.941956 
	C1550.363037,407.699860 1633.724976,431.440094 1713.939697,466.333191 
	C1760.789429,486.712585 1805.573975,510.954315 1849.056396,539.125488 
M441.633575,1113.130737 
	C433.409332,1147.528931 427.586212,1182.349243 423.671173,1217.480591 
	C413.480957,1308.921631 417.138580,1399.865479 434.735291,1490.141602 
	C455.398560,1596.149902 493.505981,1695.592041 549.371216,1788.056274 
	C599.373474,1870.816528 660.742615,1944.097778 733.933472,2007.437866 
	C848.264648,2106.380859 979.314331,2172.473389 1126.201294,2207.491943 
	C1177.850586,2219.805176 1230.224121,2227.192139 1283.238647,2230.501709 
	C1344.018677,2234.295898 1404.531372,2231.635498 1464.747803,2223.308105 
	C1513.965332,2216.501709 1562.325806,2205.484619 1609.825928,2190.704346 
	C1684.649536,2167.422119 1755.447388,2135.308105 1822.068726,2094.128174 
	C1894.780884,2049.183838 1959.990967,1995.124756 2017.708984,1931.991455 
	C2072.456787,1872.106812 2118.417969,1806.123901 2155.336670,1733.944702 
	C2207.638184,1631.690430 2239.811279,1523.358887 2251.619141,1409.060181 
	C2262.022705,1308.356445 2255.490479,1208.698120 2232.444092,1110.157471 
	C2216.753174,1043.066040 2193.614258,978.601379 2163.318359,916.684265 
	C2121.691162,831.609009 2068.198730,754.791260 2002.834961,686.323730 
	C1936.278320,616.606750 1860.538696,558.837891 1775.576538,513.177307 
	C1678.008789,460.742157 1574.330444,427.049744 1464.777954,411.215515 
	C1454.936768,409.793091 1454.804443,409.852325 1452.161011,419.034637 
	C1443.464844,449.241150 1412.913452,474.926483 1375.960815,474.061920 
	C1343.087646,473.292816 1313.444458,450.433167 1304.025024,417.565155 
	C1302.754272,413.130920 1301.643677,408.650726 1300.281982,403.525696 
	C1296.709717,403.525696 1293.449097,403.368408 1290.207397,403.549103 
	C1234.855713,406.634460 1180.192505,414.309540 1126.200317,427.100494 
	C1046.955200,445.873962 971.542664,474.578613 899.858582,513.120911 
	C843.319702,543.520142 790.574097,579.488037 741.551880,620.980957 
	C680.659241,672.521118 627.382385,730.948364 581.842102,796.416199 
	C548.259827,844.693298 519.506165,895.683716 495.917419,949.603943 
	C473.016815,1001.951294 454.951477,1055.868896 441.633575,1113.130737 
z"/>
<path fill="#030303" opacity="1.000000" stroke="none" 
	d="
M441.803833,1112.316406 
	C454.951477,1055.868896 473.016815,1001.951294 495.917419,949.603943 
	C519.506165,895.683716 548.259827,844.693298 581.842102,796.416199 
	C627.382385,730.948364 680.659241,672.521118 741.551880,620.980957 
	C790.574097,579.488037 843.319702,543.520142 899.858582,513.120911 
	C971.542664,474.578613 1046.955200,445.873962 1126.200317,427.100494 
	C1180.192505,414.309540 1234.855713,406.634460 1290.207397,403.549103 
	C1293.449097,403.368408 1296.709717,403.525696 1300.281982,403.525696 
	C1301.643677,408.650726 1302.754272,413.130920 1304.025024,417.565155 
	C1313.444458,450.433167 1343.087646,473.292816 1375.960815,474.061920 
	C1412.913452,474.926483 1443.464844,449.241150 1452.161011,419.034637 
	C1454.804443,409.852325 1454.936768,409.793091 1464.777954,411.215515 
	C1574.330444,427.049744 1678.008789,460.742157 1775.576538,513.177307 
	C1860.538696,558.837891 1936.278320,616.606750 2002.834961,686.323730 
	C2068.198730,754.791260 2121.691162,831.609009 2163.318359,916.684265 
	C2193.614258,978.601379 2216.753174,1043.066040 2232.444092,1110.157471 
	C2255.490479,1208.698120 2262.022705,1308.356445 2251.619141,1409.060181 
	C2239.811279,1523.358887 2207.638184,1631.690430 2155.336670,1733.944702 
	C2118.417969,1806.123901 2072.456787,1872.106812 2017.708984,1931.991455 
	C1959.990967,1995.124756 1894.780884,2049.183838 1822.068726,2094.128174 
	C1755.447388,2135.308105 1684.649536,2167.422119 1609.825928,2190.704346 
	C1562.325806,2205.484619 1513.965332,2216.501709 1464.747803,2223.308105 
	C1404.531372,2231.635498 1344.018677,2234.295898 1283.238647,2230.501709 
	C1230.224121,2227.192139 1177.850586,2219.805176 1126.201294,2207.491943 
	C979.314331,2172.473389 848.264648,2106.380859 733.933472,2007.437866 
	C660.742615,1944.097778 599.373474,1870.816528 549.371216,1788.056274 
	C493.505981,1695.592041 455.398560,1596.149902 434.735291,1490.141602 
	C417.138580,1399.865479 413.480957,1308.921631 423.671173,1217.480591 
	C427.586212,1182.349243 433.409332,1147.528931 441.803833,1112.316406 
M872.073120,675.226929 
	C847.409790,695.042175 821.632690,713.634155 798.282104,734.891418 
	C712.212402,813.245056 647.075684,906.620544 601.953613,1013.929626 
	C598.045654,1023.223572 598.087463,1023.276428 588.367554,1022.231018 
	C567.632324,1020.000977 548.376892,1024.218994 531.650452,1036.807129 
	C484.054901,1072.627075 491.766541,1145.138672 545.816650,1170.563232 
	C552.879822,1173.885498 554.329895,1173.267822 552.975403,1184.171631 
	C549.362793,1213.254883 544.749756,1242.309814 543.086609,1271.521362 
	C537.691101,1366.284546 549.418762,1459.090454 577.856750,1549.732178 
	C616.706787,1673.560547 682.064819,1781.385620 773.678223,1873.190796 
	C835.174194,1934.815430 905.371277,1984.509766 983.361694,2023.131958 
	C1055.223389,2058.718994 1130.762939,2083.114502 1209.953003,2095.770020 
	C1275.413086,2106.231445 1341.207031,2108.253662 1407.302856,2102.519775 
	C1453.255859,2098.533447 1498.482056,2090.606201 1542.960083,2078.701904 
	C1608.265503,2061.223145 1670.438721,2035.853516 1729.358154,2002.601562 
	C1794.208496,1966.002563 1852.917725,1921.340454 1904.891357,1868.026733 
	C1987.582764,1783.202759 2048.378174,1684.806274 2087.258789,1572.811890 
	C2109.137451,1509.791016 2122.593262,1445.053833 2127.662842,1378.643066 
	C2133.120361,1307.150757 2128.867676,1236.178955 2114.865479,1165.745728 
	C2100.870117,1095.347412 2077.952881,1028.062622 2045.692627,964.038025 
	C1997.076050,867.551514 1931.516724,784.306580 1848.677856,714.823914 
	C1775.430786,653.386536 1693.837769,606.380859 1603.847900,574.074463 
	C1534.760132,549.272095 1463.605347,534.397827 1390.317261,529.336792 
	C1330.855103,525.230347 1271.734009,527.682495 1212.888550,536.740356 
	C1156.388672,545.437073 1101.403442,560.050049 1048.060303,580.633118 
	C985.903442,604.617065 927.444580,635.556091 872.073120,675.226929 
z"/>
<path fill="#E7E8E8" opacity="1.000000" stroke="none" 
	d="
M872.654297,674.808228 
	C927.444580,635.556091 985.903442,604.617065 1048.060303,580.633118 
	C1101.403442,560.050049 1156.388672,545.437073 1212.888550,536.740356 
	C1271.734009,527.682495 1330.855103,525.230347 1390.317261,529.336792 
	C1463.605347,534.397827 1534.760132,549.272095 1603.847900,574.074463 
	C1693.837769,606.380859 1775.430786,653.386536 1848.677856,714.823914 
	C1931.516724,784.306580 1997.076050,867.551514 2045.692627,964.038025 
	C2077.952881,1028.062622 2100.870117,1095.347412 2114.865479,1165.745728 
	C2128.867676,1236.178955 2133.120361,1307.150757 2127.662842,1378.643066 
	C2122.593262,1445.053833 2109.137451,1509.791016 2087.258789,1572.811890 
	C2048.378174,1684.806274 1987.582764,1783.202759 1904.891357,1868.026733 
	C1852.917725,1921.340454 1794.208496,1966.002563 1729.358154,2002.601562 
	C1670.438721,2035.853516 1608.265503,2061.223145 1542.960083,2078.701904 
	C1498.482056,2090.606201 1453.255859,2098.533447 1407.302856,2102.519775 
	C1341.207031,2108.253662 1275.413086,2106.231445 1209.953003,2095.770020 
	C1130.762939,2083.114502 1055.223389,2058.718994 983.361694,2023.131958 
	C905.371277,1984.509766 835.174194,1934.815430 773.678223,1873.190796 
	C682.064819,1781.385620 616.706787,1673.560547 577.856750,1549.732178 
	C549.418762,1459.090454 537.691101,1366.284546 543.086609,1271.521362 
	C544.749756,1242.309814 549.362793,1213.254883 552.975403,1184.171631 
	C554.329895,1173.267822 552.879822,1173.885498 545.816650,1170.563232 
	C491.766541,1145.138672 484.054901,1072.627075 531.650452,1036.807129 
	C548.376892,1024.218994 567.632324,1020.000977 588.367554,1022.231018 
	C598.087463,1023.276428 598.045654,1023.223572 601.953613,1013.929626 
	C647.075684,906.620544 712.212402,813.245056 798.282104,734.891418 
	C821.632690,713.634155 847.409790,695.042175 872.654297,674.808228 
M933.878784,1981.367432 
	C978.476074,2007.657227 1024.980835,2029.858398 1073.769897,2047.295166 
	C1135.907349,2069.502686 1199.837524,2083.606445 1265.485840,2089.667725 
	C1333.546753,2095.951660 1401.365479,2093.129639 1468.711914,2081.580078 
	C1536.005493,2070.039551 1600.811401,2050.126953 1662.971191,2021.767334 
	C1737.840820,1987.609375 1805.776611,1942.897095 1866.328735,1887.181763 
	C1950.499390,1809.734741 2014.326416,1717.965698 2058.328369,1612.402466 
	C2092.642578,1530.080078 2111.795654,1444.276611 2116.093262,1355.276855 
	C2120.226318,1269.683838 2110.116211,1185.670044 2086.329590,1103.274658 
	C2068.206787,1040.498169 2042.699341,980.906860 2009.527710,924.695740 
	C1956.534302,834.895691 1888.344238,758.580688 1804.532471,696.390503 
	C1694.969360,615.092163 1572.642944,564.906494 1437.371338,546.946411 
	C1363.935669,537.196289 1290.510864,538.108704 1217.177246,549.289734 
	C1164.273926,557.355774 1112.698608,570.387146 1062.569824,588.949097 
	C970.316772,623.108887 887.157166,672.643372 813.764648,738.229919 
	C725.603333,817.014587 659.076965,911.260071 613.516602,1020.329834 
	C612.525574,1022.702454 612.018677,1025.277222 611.032654,1028.615234 
	C628.531067,1037.877319 642.214722,1050.469482 650.230286,1068.650757 
	C658.284302,1086.919312 659.778870,1105.906494 653.115479,1124.255859 
	C638.876038,1163.468506 608.989014,1179.961060 568.361023,1178.212891 
	C515.821472,1428.773193 609.494690,1785.646240 933.878784,1981.367432 
z"/>
<path fill="#030303" opacity="1.000000" stroke="none" 
	d="
M933.275146,1980.958618 
	C609.494690,1785.646240 515.821472,1428.773193 568.361023,1178.212891 
	C608.989014,1179.961060 638.876038,1163.468506 653.115479,1124.255859 
	C659.778870,1105.906494 658.284302,1086.919312 650.230286,1068.650757 
	C642.214722,1050.469482 628.531067,1037.877319 611.032654,1028.615234 
	C612.018677,1025.277222 612.525574,1022.702454 613.516602,1020.329834 
	C659.076965,911.260071 725.603333,817.014587 813.764648,738.229919 
	C887.157166,672.643372 970.316772,623.108887 1062.569824,588.949097 
	C1112.698608,570.387146 1164.273926,557.355774 1217.177246,549.289734 
	C1290.510864,538.108704 1363.935669,537.196289 1437.371338,546.946411 
	C1572.642944,564.906494 1694.969360,615.092163 1804.532471,696.390503 
	C1888.344238,758.580688 1956.534302,834.895691 2009.527710,924.695740 
	C2042.699341,980.906860 2068.206787,1040.498169 2086.329590,1103.274658 
	C2110.116211,1185.670044 2120.226318,1269.683838 2116.093262,1355.276855 
	C2111.795654,1444.276611 2092.642578,1530.080078 2058.328369,1612.402466 
	C2014.326416,1717.965698 1950.499390,1809.734741 1866.328735,1887.181763 
	C1805.776611,1942.897095 1737.840820,1987.609375 1662.971191,2021.767334 
	C1600.811401,2050.126953 1536.005493,2070.039551 1468.711914,2081.580078 
	C1401.365479,2093.129639 1333.546753,2095.951660 1265.485840,2089.667725 
	C1199.837524,2083.606445 1135.907349,2069.502686 1073.769897,2047.295166 
	C1024.980835,2029.858398 978.476074,2007.657227 933.275146,1980.958618 
M1603.604492,1660.391602 
	C1604.380981,1658.187988 1605.172485,1655.989624 1605.931274,1653.779907 
	C1617.425537,1620.308228 1599.525635,1580.950928 1563.514160,1569.510254 
	C1553.838257,1566.436279 1543.258789,1565.020752 1533.085815,1564.981323 
	C1518.584351,1564.925049 1506.072876,1560.941772 1495.684937,1551.093018 
	C1478.763916,1535.050171 1462.056152,1518.776978 1445.538086,1502.320312 
	C1442.973145,1499.764893 1439.272339,1497.123779 1439.969727,1491.462524 
	C1443.045166,1490.896484 1446.214966,1489.896729 1449.414429,1489.791260 
	C1471.717529,1489.055420 1494.025146,1488.421143 1516.335693,1487.973877 
	C1520.291016,1487.894531 1524.264404,1488.862671 1528.233765,1489.309326 
	C1534.678589,1490.034790 1539.268677,1493.487549 1542.754639,1498.805298 
	C1545.674194,1503.259155 1548.767212,1507.602905 1551.879272,1511.926514 
	C1579.300781,1550.021973 1634.687622,1552.324219 1667.577271,1521.804321 
	C1689.968018,1501.026733 1702.735352,1474.019897 1704.405273,1443.152588 
	C1706.073486,1412.312012 1690.429443,1381.335693 1657.120850,1367.953735 
	C1642.862305,1362.225220 1628.058838,1361.328003 1612.991943,1360.956055 
	C1596.942627,1360.559937 1583.837402,1366.046509 1573.076294,1377.980957 
	C1562.143433,1390.105347 1550.735474,1401.800171 1539.658203,1413.796387 
	C1536.356934,1417.371582 1532.993408,1419.772827 1527.695801,1419.725464 
	C1505.699829,1419.528198 1483.699463,1419.834351 1461.703125,1419.661011 
	C1456.414185,1419.619507 1451.037720,1418.858887 1445.885376,1417.646973 
	C1442.616943,1416.878174 1439.688232,1414.664673 1435.178833,1412.373291 
	C1440.154297,1406.436768 1443.870850,1401.405396 1448.183594,1396.951172 
	C1482.262207,1361.756592 1516.323730,1326.543335 1550.682129,1291.622925 
	C1562.825562,1279.281006 1575.750977,1267.706421 1588.371338,1255.836670 
	C1597.919678,1246.856201 1608.597046,1243.648071 1622.161011,1245.530884 
	C1655.151855,1250.110474 1687.281128,1230.835449 1700.003296,1199.961426 
	C1704.948853,1187.959717 1709.388794,1175.706787 1713.229492,1163.311401 
	C1715.060303,1157.403076 1716.285645,1150.717896 1715.492798,1144.686035 
	C1711.657349,1115.503906 1698.150391,1092.406006 1670.816040,1079.182251 
	C1634.629517,1061.676025 1592.835327,1076.499634 1577.023315,1113.477295 
	C1568.102539,1134.339600 1563.933228,1156.762939 1562.776123,1179.526855 
	C1562.523071,1184.504761 1561.269775,1188.358154 1557.703247,1191.943848 
	C1511.871338,1238.022949 1466.242432,1284.304443 1420.294556,1330.267090 
	C1412.319824,1338.244507 1403.295288,1345.226318 1394.362427,1352.161499 
	C1391.377563,1354.479004 1386.969482,1356.794312 1383.554321,1356.367920 
	C1374.848389,1355.281250 1366.089722,1353.411865 1356.917114,1348.474609 
	C1361.453369,1343.875000 1365.137695,1339.703125 1369.261597,1336.024170 
	C1421.787720,1289.165649 1470.321411,1238.238281 1519.808960,1188.286255 
	C1522.262451,1185.809814 1524.749146,1182.428345 1525.282104,1179.152832 
	C1527.360840,1166.378784 1529.823120,1153.495117 1530.015503,1140.620361 
	C1530.483765,1109.300171 1529.911377,1077.959717 1529.396851,1046.633423 
	C1529.293701,1040.353394 1531.050659,1035.986938 1536.092896,1032.148438 
	C1542.170776,1027.521484 1547.738403,1022.190613 1553.290161,1016.915161 
	C1558.985229,1011.503479 1562.581665,1004.927307 1563.944458,997.020081 
	C1566.037231,984.877136 1569.055664,972.876282 1570.743896,960.685303 
	C1572.857300,945.423706 1572.630981,930.051880 1568.874756,914.991577 
	C1565.352661,900.869873 1557.928955,889.149902 1545.194336,881.649963 
	C1528.217285,871.651550 1509.991943,867.575806 1490.465332,872.388855 
	C1460.172241,879.855774 1435.968872,906.611877 1435.512695,936.940918 
	C1435.352661,947.584167 1433.652588,958.195740 1433.201904,968.844910 
	C1432.085938,995.212952 1443.265015,1016.400879 1463.647339,1031.859985 
	C1473.031982,1038.977783 1477.284912,1046.745728 1477.580078,1057.672607 
	C1478.191406,1080.325928 1478.617798,1102.985107 1479.381226,1125.633057 
	C1479.556152,1130.823486 1477.479492,1134.354980 1473.988159,1137.856689 
	C1441.041626,1170.900635 1408.215820,1204.064941 1375.305786,1237.145508 
	C1373.822876,1238.636108 1371.866455,1239.655640 1369.798950,1241.131348 
	C1369.129517,1239.475708 1368.470825,1238.599121 1368.461914,1237.716064 
	C1368.173462,1209.053101 1367.981323,1180.389160 1367.672363,1151.726440 
	C1367.630737,1147.857788 1369.419556,1145.735962 1372.666382,1143.929810 
	C1378.771729,1140.533447 1384.736938,1136.861450 1390.597534,1133.053345 
	C1405.922119,1123.096191 1415.852173,1108.999634 1418.570923,1091.088379 
	C1421.161011,1074.023926 1422.702881,1056.671753 1423.012817,1039.415771 
	C1423.723389,999.844238 1394.818970,957.817627 1350.314697,954.428711 
	C1332.772827,953.092896 1316.387207,956.374756 1301.895386,966.328613 
	C1275.663452,984.346069 1263.704346,1010.033020 1263.912109,1041.429932 
	C1264.000244,1054.739746 1264.922852,1068.086548 1266.274536,1081.334229 
	C1267.824585,1096.524414 1273.113281,1110.273193 1283.383301,1122.095825 
	C1290.582031,1130.382812 1299.708496,1135.670166 1308.854980,1141.103271 
	C1321.816406,1148.802490 1324.958618,1163.727661 1315.583252,1177.744019 
	C1310.741699,1173.732910 1305.698853,1170.037354 1301.211670,1165.758911 
	C1273.234009,1139.082397 1245.623291,1112.014648 1217.321533,1085.688721 
	C1209.918457,1078.802368 1207.689331,1071.583984 1208.036499,1061.979370 
	C1208.546631,1047.866333 1212.728394,1035.944214 1223.841797,1026.756226 
	C1228.973145,1022.513916 1233.607178,1017.670715 1238.729614,1013.416687 
	C1250.284424,1003.820923 1256.082275,991.801270 1255.281128,976.648560 
	C1253.997070,952.364685 1252.984375,928.065796 1251.574463,903.789673 
	C1251.140503,896.318848 1248.242798,889.433594 1243.356079,883.737061 
	C1230.027100,868.199341 1214.154541,856.538818 1193.693726,852.092773 
	C1191.434692,851.601868 1189.313599,850.476501 1185.808350,849.143250 
	C1189.806274,847.160583 1192.085327,845.784119 1194.533813,844.853149 
	C1229.954346,831.385254 1266.626953,823.061462 1304.337280,820.134827 
	C1337.261230,817.579712 1370.221924,818.338867 1403.108154,822.176880 
	C1430.674683,825.393921 1457.792725,830.882141 1484.205444,839.070740 
	C1509.326904,846.858948 1534.027344,856.240234 1556.999512,869.283081 
	C1573.776245,878.808411 1590.430786,888.694763 1606.298340,899.639893 
	C1627.178833,914.042725 1645.978760,931.091980 1663.563232,949.397949 
	C1688.151123,974.994812 1709.032349,1003.425903 1726.696045,1034.143066 
	C1740.837402,1058.734741 1752.172607,1084.693237 1762.295288,1111.193604 
	C1771.743164,1135.927368 1779.249390,1161.140015 1779.811035,1187.798706 
	C1780.323364,1212.115234 1780.507935,1236.468628 1779.768311,1260.773193 
	C1779.078369,1283.442505 1775.526123,1305.850952 1770.343140,1327.977905 
	C1760.355225,1370.618408 1744.488770,1411.259399 1728.862183,1452.023682 
	C1711.695801,1496.804810 1694.805054,1541.702637 1678.645264,1586.854370 
	C1669.172729,1613.321289 1663.737183,1640.806763 1664.104492,1669.148682 
	C1664.461548,1696.704956 1670.502197,1722.613525 1686.288940,1745.748901 
	C1704.934204,1773.073242 1731.859619,1790.135010 1760.098999,1805.566406 
	C1761.655396,1806.416748 1764.108643,1806.673950 1765.771362,1806.109009 
	C1775.246704,1802.888794 1779.536743,1794.090454 1775.616089,1784.996094 
	C1769.550903,1770.927246 1763.011353,1757.060303 1756.537964,1743.170654 
	C1749.559570,1728.197632 1744.935791,1712.527100 1744.350708,1696.039917 
	C1743.523560,1672.731812 1743.462524,1649.394897 1743.194580,1626.068970 
	C1742.991699,1608.419189 1747.201050,1591.731201 1754.735718,1575.845703 
	C1761.874390,1560.794678 1768.931152,1545.701782 1776.297241,1530.762207 
	C1799.278687,1484.152100 1823.141235,1437.958618 1845.220337,1390.926636 
	C1863.988525,1350.947632 1875.924683,1308.543213 1883.263550,1264.984497 
	C1889.936646,1225.376709 1890.816650,1185.475830 1888.807495,1145.377563 
	C1885.093872,1071.269287 1863.945190,1002.602722 1825.863159,939.088074 
	C1798.755127,893.876160 1765.334473,853.812195 1725.720093,819.053284 
	C1665.292114,766.031860 1596.452026,727.705505 1520.216309,702.461670 
	C1488.221802,691.867493 1455.822632,682.486023 1422.367676,678.367554 
	C1390.984009,674.503967 1359.371460,671.611206 1327.784424,670.565491 
	C1301.893311,669.708313 1275.633179,670.235962 1249.993530,673.615601 
	C1200.194092,680.179993 1152.409912,694.773987 1107.048950,716.696655 
	C1072.354370,733.464233 1040.273682,754.330383 1011.491272,779.934143 
	C969.436218,817.344849 936.398376,861.641724 910.893555,911.884827 
	C870.782227,990.902100 854.489685,1074.437012 861.399719,1162.585083 
	C863.300293,1186.829224 865.915894,1211.025269 868.700500,1235.186157 
	C869.426636,1241.486328 867.796448,1245.901001 863.538574,1250.354858 
	C850.644470,1263.842773 838.041809,1277.610840 825.408020,1291.345459 
	C806.211243,1312.214844 787.707031,1333.656128 772.588257,1357.758301 
	C762.975342,1373.083008 754.778625,1389.041138 752.098206,1407.268188 
	C750.329407,1419.296265 752.036987,1430.732300 759.305176,1440.594604 
	C766.411804,1450.237793 774.006226,1459.565918 781.950806,1468.532471 
	C787.980957,1475.338379 795.456177,1480.761719 804.775879,1481.876221 
	C811.959351,1482.735474 815.590820,1486.087280 816.371948,1493.099365 
	C816.702148,1496.064209 817.577759,1498.967163 817.931396,1501.930786 
	C819.849792,1518.011108 818.785034,1533.950317 814.297485,1549.474976 
	C811.371460,1559.597534 814.045471,1567.780273 820.716980,1575.256714 
	C825.596619,1580.725098 830.466003,1586.203613 835.262756,1591.744385 
	C843.170776,1600.879150 843.572937,1602.204834 836.971741,1612.669678 
	C830.191833,1623.417847 829.351685,1634.734619 833.201782,1646.232910 
	C836.037048,1654.700684 839.960022,1662.910522 844.288208,1670.743530 
	C849.111206,1679.472046 854.969543,1687.625977 860.327209,1696.061890 
	C869.734802,1710.874390 869.856262,1705.219482 863.057556,1723.031738 
	C856.169800,1741.077515 848.817017,1758.992310 847.068115,1778.535034 
	C845.549744,1795.502075 850.140381,1810.414673 862.825745,1821.979736 
	C876.444824,1834.395874 891.305725,1845.295288 909.323425,1850.443848 
	C922.429565,1854.188965 935.725891,1857.697632 949.176758,1859.718384 
	C976.845703,1863.875488 1004.742188,1866.513550 1032.416748,1870.638062 
	C1054.127319,1873.873779 1075.821533,1877.643433 1097.191528,1882.604004 
	C1113.921997,1886.487671 1128.301636,1894.685913 1133.893677,1912.916626 
	C1134.853149,1916.044067 1136.667480,1919.002563 1138.542847,1921.725098 
	C1139.931274,1923.740479 1142.059570,1925.246460 1144.318726,1927.423096 
	C1151.871216,1915.133301 1157.703369,1903.324951 1161.163574,1890.329468 
	C1163.164185,1882.815430 1162.585571,1875.767578 1159.050903,1869.004150 
	C1152.841309,1857.122314 1145.912476,1845.575806 1134.961548,1837.486450 
	C1124.546143,1829.792603 1113.985840,1822.007080 1102.571289,1816.008911 
	C1072.844116,1800.388062 1045.009766,1782.312012 1022.308167,1757.331421 
	C1015.899292,1750.279297 1009.898560,1742.226196 1006.087769,1733.583984 
	C999.665100,1719.018433 994.158447,1703.879395 990.031616,1688.507690 
	C982.212341,1659.382080 980.243286,1629.309326 979.530457,1599.328735 
	C977.922363,1531.694336 976.424316,1464.041382 976.261780,1396.392578 
	C976.081665,1321.411255 976.806091,1246.412109 978.476257,1171.450562 
	C979.045044,1145.920288 982.188110,1120.208374 986.782837,1095.059448 
	C994.889465,1050.689087 1012.469238,1009.689697 1036.660767,971.633850 
	C1053.579834,945.018433 1074.205322,921.573181 1098.597778,901.522705 
	C1099.835693,900.505066 1101.704956,900.255554 1105.015015,898.979858 
	C1097.208984,921.739563 1101.487793,942.656311 1105.994141,963.569275 
	C1106.625732,966.500305 1107.158936,969.454468 1107.666382,972.410156 
	C1111.689331,995.844971 1122.525757,1015.121765 1142.717041,1028.279419 
	C1149.616089,1032.775269 1152.163330,1038.201538 1152.027588,1046.453247 
	C1151.650024,1069.411499 1151.019653,1092.422607 1156.483154,1115.086426 
	C1157.803101,1120.562012 1159.887573,1124.856445 1163.913330,1128.708618 
	C1175.230347,1139.537720 1186.308594,1150.616699 1197.454468,1161.624023 
	C1236.821045,1200.501587 1276.117798,1239.450439 1315.614868,1278.194946 
	C1320.245972,1282.737793 1322.570312,1287.369141 1322.247925,1293.942871 
	C1321.660645,1305.919434 1321.992920,1317.940552 1321.426025,1329.918579 
	C1321.160400,1335.527222 1320.249634,1341.243774 1318.654297,1346.621704 
	C1315.458374,1357.395630 1307.997925,1359.945801 1298.751709,1353.764160 
	C1294.883911,1351.178345 1291.246460,1348.220825 1287.663330,1345.240723 
	C1253.528198,1316.849609 1222.343384,1285.358887 1191.243774,1253.757324 
	C1182.450684,1244.822266 1177.457397,1234.872681 1176.078003,1222.270630 
	C1174.524780,1208.082153 1172.060303,1193.937378 1166.134399,1180.628174 
	C1154.641846,1154.817139 1136.716064,1138.013428 1106.975098,1137.431030 
	C1090.548218,1137.109375 1075.264038,1141.230713 1061.656494,1150.619995 
	C1050.680664,1158.193359 1042.142090,1167.827515 1038.422852,1180.956909 
	C1034.548096,1194.635376 1033.172974,1208.674316 1036.741455,1222.477051 
	C1040.569824,1237.284180 1045.574219,1251.797485 1050.394165,1266.330078 
	C1051.519287,1269.722534 1053.449463,1273.170288 1055.897217,1275.750122 
	C1073.332031,1294.125732 1094.821533,1303.863647 1120.169922,1302.163696 
	C1130.658569,1301.460449 1139.182495,1303.453491 1147.068481,1309.772705 
	C1151.228638,1313.106323 1155.564209,1316.286865 1159.343506,1320.019409 
	C1187.793213,1348.116699 1216.145752,1376.312378 1244.455078,1404.551025 
	C1246.963379,1407.053101 1248.948730,1410.079224 1252.388062,1414.374268 
	C1246.414795,1415.871948 1242.094849,1417.671509 1237.680542,1417.945190 
	C1209.753784,1419.676636 1181.819336,1421.425293 1153.861206,1422.463745 
	C1131.050293,1423.310913 1138.026001,1426.015869 1122.874146,1408.830566 
	C1099.544312,1382.369751 1092.756348,1379.044312 1057.387207,1377.795898 
	C1055.056885,1377.713623 1052.722412,1377.729980 1050.390015,1377.739624 
	C1043.524292,1377.767700 1037.249512,1379.733276 1031.591919,1383.611328 
	C1020.766174,1391.032104 1011.145020,1399.721924 1004.257141,1411.012939 
	C991.727600,1431.551880 989.889099,1452.891357 1000.191284,1474.911621 
	C1003.438293,1481.851685 1006.365173,1489.030518 1010.428589,1495.475952 
	C1015.007568,1502.739014 1019.897156,1510.152344 1026.079834,1515.987183 
	C1039.549072,1528.698975 1055.666992,1537.580078 1074.647095,1535.811279 
	C1097.878540,1533.646118 1117.246582,1522.664673 1130.783325,1503.316528 
	C1135.662476,1496.342651 1141.206787,1492.038330 1149.486938,1492.123413 
	C1179.785645,1492.434326 1210.083252,1492.938599 1240.375977,1493.609009 
	C1244.150635,1493.692505 1247.893677,1495.206055 1253.158325,1496.398193 
	C1249.398560,1501.336548 1246.943604,1505.258789 1243.820801,1508.546875 
	C1226.841431,1526.425049 1209.623291,1544.076538 1192.644775,1561.955566 
	C1185.309326,1569.679688 1178.232422,1577.659546 1171.256226,1585.712036 
	C1164.428955,1593.592773 1161.489868,1603.019897 1161.238159,1613.349487 
	C1161.099976,1619.013916 1160.776245,1624.684204 1160.912476,1630.342896 
	C1161.219604,1643.101807 1155.923828,1652.531250 1145.529785,1659.960693 
	C1139.937378,1663.958008 1134.945435,1669.190552 1130.747437,1674.680054 
	C1099.096924,1716.066772 1123.493774,1779.619019 1169.260376,1794.659302 
	C1205.601440,1806.602173 1242.936523,1781.629028 1251.239014,1754.350342 
	C1260.657227,1723.405151 1253.644775,1695.143799 1232.183838,1670.778564 
	C1228.455200,1666.545532 1223.978638,1662.975098 1219.890747,1659.053589 
	C1210.803955,1650.336792 1210.170654,1647.719971 1216.447266,1636.551880 
	C1219.854980,1630.488647 1223.661865,1624.395020 1228.419678,1619.390259 
	C1247.463379,1599.358154 1266.895386,1579.692871 1286.330933,1560.037598 
	C1289.344604,1556.989868 1292.915283,1554.353516 1296.591553,1552.126709 
	C1307.582031,1545.469116 1317.125977,1549.321411 1319.936646,1561.932617 
	C1321.371826,1568.371826 1321.800293,1575.150146 1321.801514,1581.775391 
	C1321.807617,1618.772217 1321.783691,1655.772339 1321.249634,1692.763916 
	C1321.047852,1706.732544 1319.612549,1720.694458 1318.426270,1734.632812 
	C1317.856445,1741.330078 1316.086548,1747.858276 1311.424072,1753.020508 
	C1296.357910,1769.702271 1292.426758,1789.186523 1296.686768,1810.742188 
	C1300.343262,1829.244995 1308.052246,1845.230957 1326.748901,1852.630737 
	C1356.081177,1864.239868 1392.059692,1844.572021 1399.793335,1813.886475 
	C1405.597046,1790.858887 1398.363037,1771.245361 1385.901367,1752.632935 
	C1384.644287,1750.755493 1382.849365,1748.916138 1380.871460,1747.907227 
	C1376.034058,1745.439697 1374.530640,1741.226929 1374.163208,1736.419434 
	C1373.376709,1726.130615 1372.730347,1715.828979 1372.223511,1705.522827 
	C1372.121704,1703.452515 1372.895264,1701.339111 1373.377197,1698.612671 
	C1375.355713,1699.797363 1376.651123,1700.275513 1377.553223,1701.156250 
	C1404.739868,1727.698364 1431.961182,1754.206421 1458.909790,1780.988770 
	C1461.198975,1783.263672 1462.620972,1787.374634 1462.743896,1790.695679 
	C1463.224976,1803.678467 1462.797363,1816.692993 1463.163208,1829.682739 
	C1463.361206,1836.714355 1460.544678,1840.753662 1453.979126,1843.171997 
	C1444.499878,1846.663696 1437.813599,1853.616821 1433.134644,1862.410889 
	C1423.723022,1880.100464 1418.838135,1899.014160 1419.353760,1919.061890 
	C1419.830811,1937.613403 1426.936523,1953.291748 1441.155884,1965.589355 
	C1461.576904,1983.250122 1484.521240,1990.037354 1510.677734,1981.143188 
	C1525.544312,1976.087891 1536.757202,1965.709717 1547.594604,1954.546021 
	C1578.897461,1922.301514 1569.696045,1875.184937 1540.363037,1847.350220 
	C1538.695190,1845.767456 1536.723999,1844.119507 1534.598145,1843.469849 
	C1524.272583,1840.313843 1521.071289,1832.520386 1520.486084,1822.824951 
	C1520.184937,1817.836792 1519.665161,1812.853638 1519.575439,1807.862305 
	C1519.305542,1792.865845 1518.920166,1777.862183 1519.161377,1762.870728 
	C1519.261597,1756.647095 1517.215454,1752.280151 1512.777710,1748.033447 
	C1495.441284,1731.443359 1478.412476,1714.531616 1461.277222,1697.731323 
	C1433.432617,1670.430908 1405.671875,1643.044067 1377.673584,1615.902100 
	C1373.255249,1611.618896 1371.114868,1607.249512 1371.341919,1601.037231 
	C1371.718750,1590.720337 1371.167603,1580.372437 1371.380371,1570.045410 
	C1371.468506,1565.770020 1371.946045,1561.329712 1373.248779,1557.287598 
	C1376.134644,1548.333130 1380.984985,1546.386108 1389.289551,1550.557617 
	C1393.136597,1552.490234 1397.135498,1554.586182 1400.214844,1557.505127 
	C1418.578247,1574.911621 1436.936523,1592.338013 1454.783203,1610.268433 
	C1463.020630,1618.544678 1467.052002,1629.032959 1466.968872,1641.082886 
	C1466.920898,1648.047607 1467.644653,1655.088501 1468.756226,1661.976440 
	C1471.580566,1679.477295 1479.494141,1694.042725 1494.401611,1704.343872 
	C1523.280029,1724.299194 1562.180176,1719.687378 1584.489014,1692.493042 
	C1591.979736,1683.362061 1596.819458,1672.056519 1603.604492,1660.391602 
z"/>
<path fill="#FBFBFB" opacity="1.000000" stroke="none" 
	d="
M1603.237671,1661.068237 
	C1596.819458,1672.056519 1591.979736,1683.362061 1584.489014,1692.493042 
	C1562.180176,1719.687378 1523.280029,1724.299194 1494.401611,1704.343872 
	C1479.494141,1694.042725 1471.580566,1679.477295 1468.756226,1661.976440 
	C1467.644653,1655.088501 1466.920898,1648.047607 1466.968872,1641.082886 
	C1467.052002,1629.032959 1463.020630,1618.544678 1454.783203,1610.268433 
	C1436.936523,1592.338013 1418.578247,1574.911621 1400.214844,1557.505127 
	C1397.135498,1554.586182 1393.136597,1552.490234 1389.289551,1550.557617 
	C1380.984985,1546.386108 1376.134644,1548.333130 1373.248779,1557.287598 
	C1371.946045,1561.329712 1371.468506,1565.770020 1371.380371,1570.045410 
	C1371.167603,1580.372437 1371.718750,1590.720337 1371.341919,1601.037231 
	C1371.114868,1607.249512 1373.255249,1611.618896 1377.673584,1615.902100 
	C1405.671875,1643.044067 1433.432617,1670.430908 1461.277222,1697.731323 
	C1478.412476,1714.531616 1495.441284,1731.443359 1512.777710,1748.033447 
	C1517.215454,1752.280151 1519.261597,1756.647095 1519.161377,1762.870728 
	C1518.920166,1777.862183 1519.305542,1792.865845 1519.575439,1807.862305 
	C1519.665161,1812.853638 1520.184937,1817.836792 1520.486084,1822.824951 
	C1521.071289,1832.520386 1524.272583,1840.313843 1534.598145,1843.469849 
	C1536.723999,1844.119507 1538.695190,1845.767456 1540.363037,1847.350220 
	C1569.696045,1875.184937 1578.897461,1922.301514 1547.594604,1954.546021 
	C1536.757202,1965.709717 1525.544312,1976.087891 1510.677734,1981.143188 
	C1484.521240,1990.037354 1461.576904,1983.250122 1441.155884,1965.589355 
	C1426.936523,1953.291748 1419.830811,1937.613403 1419.353760,1919.061890 
	C1418.838135,1899.014160 1423.723022,1880.100464 1433.134644,1862.410889 
	C1437.813599,1853.616821 1444.499878,1846.663696 1453.979126,1843.171997 
	C1460.544678,1840.753662 1463.361206,1836.714355 1463.163208,1829.682739 
	C1462.797363,1816.692993 1463.224976,1803.678467 1462.743896,1790.695679 
	C1462.620972,1787.374634 1461.198975,1783.263672 1458.909790,1780.988770 
	C1431.961182,1754.206421 1404.739868,1727.698364 1377.553223,1701.156250 
	C1376.651123,1700.275513 1375.355713,1699.797363 1373.377197,1698.612671 
	C1372.895264,1701.339111 1372.121704,1703.452515 1372.223511,1705.522827 
	C1372.730347,1715.828979 1373.376709,1726.130615 1374.163208,1736.419434 
	C1374.530640,1741.226929 1376.034058,1745.439697 1380.871460,1747.907227 
	C1382.849365,1748.916138 1384.644287,1750.755493 1385.901367,1752.632935 
	C1398.363037,1771.245361 1405.597046,1790.858887 1399.793335,1813.886475 
	C1392.059692,1844.572021 1356.081177,1864.239868 1326.748901,1852.630737 
	C1308.052246,1845.230957 1300.343262,1829.244995 1296.686768,1810.742188 
	C1292.426758,1789.186523 1296.357910,1769.702271 1311.424072,1753.020508 
	C1316.086548,1747.858276 1317.856445,1741.330078 1318.426270,1734.632812 
	C1319.612549,1720.694458 1321.047852,1706.732544 1321.249634,1692.763916 
	C1321.783691,1655.772339 1321.807617,1618.772217 1321.801514,1581.775391 
	C1321.800293,1575.150146 1321.371826,1568.371826 1319.936646,1561.932617 
	C1317.125977,1549.321411 1307.582031,1545.469116 1296.591553,1552.126709 
	C1292.915283,1554.353516 1289.344604,1556.989868 1286.330933,1560.037598 
	C1266.895386,1579.692871 1247.463379,1599.358154 1228.419678,1619.390259 
	C1223.661865,1624.395020 1219.854980,1630.488647 1216.447266,1636.551880 
	C1210.170654,1647.719971 1210.803955,1650.336792 1219.890747,1659.053589 
	C1223.978638,1662.975098 1228.455200,1666.545532 1232.183838,1670.778564 
	C1253.644775,1695.143799 1260.657227,1723.405151 1251.239014,1754.350342 
	C1242.936523,1781.629028 1205.601440,1806.602173 1169.260376,1794.659302 
	C1123.493774,1779.619019 1099.096924,1716.066772 1130.747437,1674.680054 
	C1134.945435,1669.190552 1139.937378,1663.958008 1145.529785,1659.960693 
	C1155.923828,1652.531250 1161.219604,1643.101807 1160.912476,1630.342896 
	C1160.776245,1624.684204 1161.099976,1619.013916 1161.238159,1613.349487 
	C1161.489868,1603.019897 1164.428955,1593.592773 1171.256226,1585.712036 
	C1178.232422,1577.659546 1185.309326,1569.679688 1192.644775,1561.955566 
	C1209.623291,1544.076538 1226.841431,1526.425049 1243.820801,1508.546875 
	C1246.943604,1505.258789 1249.398560,1501.336548 1253.158325,1496.398193 
	C1247.893677,1495.206055 1244.150635,1493.692505 1240.375977,1493.609009 
	C1210.083252,1492.938599 1179.785645,1492.434326 1149.486938,1492.123413 
	C1141.206787,1492.038330 1135.662476,1496.342651 1130.783325,1503.316528 
	C1117.246582,1522.664673 1097.878540,1533.646118 1074.647095,1535.811279 
	C1055.666992,1537.580078 1039.549072,1528.698975 1026.079834,1515.987183 
	C1019.897156,1510.152344 1015.007568,1502.739014 1010.428589,1495.475952 
	C1006.365173,1489.030518 1003.438293,1481.851685 1000.191284,1474.911621 
	C989.889099,1452.891357 991.727600,1431.551880 1004.257141,1411.012939 
	C1011.145020,1399.721924 1020.766174,1391.032104 1031.591919,1383.611328 
	C1037.249512,1379.733276 1043.524292,1377.767700 1050.390015,1377.739624 
	C1052.722412,1377.729980 1055.056885,1377.713623 1057.387207,1377.795898 
	C1092.756348,1379.044312 1099.544312,1382.369751 1122.874146,1408.830566 
	C1138.026001,1426.015869 1131.050293,1423.310913 1153.861206,1422.463745 
	C1181.819336,1421.425293 1209.753784,1419.676636 1237.680542,1417.945190 
	C1242.094849,1417.671509 1246.414795,1415.871948 1252.388062,1414.374268 
	C1248.948730,1410.079224 1246.963379,1407.053101 1244.455078,1404.551025 
	C1216.145752,1376.312378 1187.793213,1348.116699 1159.343506,1320.019409 
	C1155.564209,1316.286865 1151.228638,1313.106323 1147.068481,1309.772705 
	C1139.182495,1303.453491 1130.658569,1301.460449 1120.169922,1302.163696 
	C1094.821533,1303.863647 1073.332031,1294.125732 1055.897217,1275.750122 
	C1053.449463,1273.170288 1051.519287,1269.722534 1050.394165,1266.330078 
	C1045.574219,1251.797485 1040.569824,1237.284180 1036.741455,1222.477051 
	C1033.172974,1208.674316 1034.548096,1194.635376 1038.422852,1180.956909 
	C1042.142090,1167.827515 1050.680664,1158.193359 1061.656494,1150.619995 
	C1075.264038,1141.230713 1090.548218,1137.109375 1106.975098,1137.431030 
	C1136.716064,1138.013428 1154.641846,1154.817139 1166.134399,1180.628174 
	C1172.060303,1193.937378 1174.524780,1208.082153 1176.078003,1222.270630 
	C1177.457397,1234.872681 1182.450684,1244.822266 1191.243774,1253.757324 
	C1222.343384,1285.358887 1253.528198,1316.849609 1287.663330,1345.240723 
	C1291.246460,1348.220825 1294.883911,1351.178345 1298.751709,1353.764160 
	C1307.997925,1359.945801 1315.458374,1357.395630 1318.654297,1346.621704 
	C1320.249634,1341.243774 1321.160400,1335.527222 1321.426025,1329.918579 
	C1321.992920,1317.940552 1321.660645,1305.919434 1322.247925,1293.942871 
	C1322.570312,1287.369141 1320.245972,1282.737793 1315.614868,1278.194946 
	C1276.117798,1239.450439 1236.821045,1200.501587 1197.454468,1161.624023 
	C1186.308594,1150.616699 1175.230347,1139.537720 1163.913330,1128.708618 
	C1159.887573,1124.856445 1157.803101,1120.562012 1156.483154,1115.086426 
	C1151.019653,1092.422607 1151.650024,1069.411499 1152.027588,1046.453247 
	C1152.163330,1038.201538 1149.616089,1032.775269 1142.717041,1028.279419 
	C1122.525757,1015.121765 1111.689331,995.844971 1107.666382,972.410156 
	C1107.158936,969.454468 1106.625732,966.500305 1105.994141,963.569275 
	C1101.487793,942.656311 1097.208984,921.739563 1105.015015,898.979858 
	C1101.704956,900.255554 1099.835693,900.505066 1098.597778,901.522705 
	C1074.205322,921.573181 1053.579834,945.018433 1036.660767,971.633850 
	C1012.469238,1009.689697 994.889465,1050.689087 986.782837,1095.059448 
	C982.188110,1120.208374 979.045044,1145.920288 978.476257,1171.450562 
	C976.806091,1246.412109 976.081665,1321.411255 976.261780,1396.392578 
	C976.424316,1464.041382 977.922363,1531.694336 979.530457,1599.328735 
	C980.243286,1629.309326 982.212341,1659.382080 990.031616,1688.507690 
	C994.158447,1703.879395 999.665100,1719.018433 1006.087769,1733.583984 
	C1009.898560,1742.226196 1015.899292,1750.279297 1022.308167,1757.331421 
	C1045.009766,1782.312012 1072.844116,1800.388062 1102.571289,1816.008911 
	C1113.985840,1822.007080 1124.546143,1829.792603 1134.961548,1837.486450 
	C1145.912476,1845.575806 1152.841309,1857.122314 1159.050903,1869.004150 
	C1162.585571,1875.767578 1163.164185,1882.815430 1161.163574,1890.329468 
	C1157.703369,1903.324951 1151.871216,1915.133301 1144.318726,1927.423096 
	C1142.059570,1925.246460 1139.931274,1923.740479 1138.542847,1921.725098 
	C1136.667480,1919.002563 1134.853149,1916.044067 1133.893677,1912.916626 
	C1128.301636,1894.685913 1113.921997,1886.487671 1097.191528,1882.604004 
	C1075.821533,1877.643433 1054.127319,1873.873779 1032.416748,1870.638062 
	C1004.742188,1866.513550 976.845703,1863.875488 949.176758,1859.718384 
	C935.725891,1857.697632 922.429565,1854.188965 909.323425,1850.443848 
	C891.305725,1845.295288 876.444824,1834.395874 862.825745,1821.979736 
	C850.140381,1810.414673 845.549744,1795.502075 847.068115,1778.535034 
	C848.817017,1758.992310 856.169800,1741.077515 863.057556,1723.031738 
	C869.856262,1705.219482 869.734802,1710.874390 860.327209,1696.061890 
	C854.969543,1687.625977 849.111206,1679.472046 844.288208,1670.743530 
	C839.960022,1662.910522 836.037048,1654.700684 833.201782,1646.232910 
	C829.351685,1634.734619 830.191833,1623.417847 836.971741,1612.669678 
	C843.572937,1602.204834 843.170776,1600.879150 835.262756,1591.744385 
	C830.466003,1586.203613 825.596619,1580.725098 820.716980,1575.256714 
	C814.045471,1567.780273 811.371460,1559.597534 814.297485,1549.474976 
	C818.785034,1533.950317 819.849792,1518.011108 817.931396,1501.930786 
	C817.577759,1498.967163 816.702148,1496.064209 816.371948,1493.099365 
	C815.590820,1486.087280 811.959351,1482.735474 804.775879,1481.876221 
	C795.456177,1480.761719 787.980957,1475.338379 781.950806,1468.532471 
	C774.006226,1459.565918 766.411804,1450.237793 759.305176,1440.594604 
	C752.036987,1430.732300 750.329407,1419.296265 752.098206,1407.268188 
	C754.778625,1389.041138 762.975342,1373.083008 772.588257,1357.758301 
	C787.707031,1333.656128 806.211243,1312.214844 825.408020,1291.345459 
	C838.041809,1277.610840 850.644470,1263.842773 863.538574,1250.354858 
	C867.796448,1245.901001 869.426636,1241.486328 868.700500,1235.186157 
	C865.915894,1211.025269 863.300293,1186.829224 861.399719,1162.585083 
	C854.489685,1074.437012 870.782227,990.902100 910.893555,911.884827 
	C936.398376,861.641724 969.436218,817.344849 1011.491272,779.934143 
	C1040.273682,754.330383 1072.354370,733.464233 1107.048950,716.696655 
	C1152.409912,694.773987 1200.194092,680.179993 1249.993530,673.615601 
	C1275.633179,670.235962 1301.893311,669.708313 1327.784424,670.565491 
	C1359.371460,671.611206 1390.984009,674.503967 1422.367676,678.367554 
	C1455.822632,682.486023 1488.221802,691.867493 1520.216309,702.461670 
	C1596.452026,727.705505 1665.292114,766.031860 1725.720093,819.053284 
	C1765.334473,853.812195 1798.755127,893.876160 1825.863159,939.088074 
	C1863.945190,1002.602722 1885.093872,1071.269287 1888.807495,1145.377563 
	C1890.816650,1185.475830 1889.936646,1225.376709 1883.263550,1264.984497 
	C1875.924683,1308.543213 1863.988525,1350.947632 1845.220337,1390.926636 
	C1823.141235,1437.958618 1799.278687,1484.152100 1776.297241,1530.762207 
	C1768.931152,1545.701782 1761.874390,1560.794678 1754.735718,1575.845703 
	C1747.201050,1591.731201 1742.991699,1608.419189 1743.194580,1626.068970 
	C1743.462524,1649.394897 1743.523560,1672.731812 1744.350708,1696.039917 
	C1744.935791,1712.527100 1749.559570,1728.197632 1756.537964,1743.170654 
	C1763.011353,1757.060303 1769.550903,1770.927246 1775.616089,1784.996094 
	C1779.536743,1794.090454 1775.246704,1802.888794 1765.771362,1806.109009 
	C1764.108643,1806.673950 1761.655396,1806.416748 1760.098999,1805.566406 
	C1731.859619,1790.135010 1704.934204,1773.073242 1686.288940,1745.748901 
	C1670.502197,1722.613525 1664.461548,1696.704956 1664.104492,1669.148682 
	C1663.737183,1640.806763 1669.172729,1613.321289 1678.645264,1586.854370 
	C1694.805054,1541.702637 1711.695801,1496.804810 1728.862183,1452.023682 
	C1744.488770,1411.259399 1760.355225,1370.618408 1770.343140,1327.977905 
	C1775.526123,1305.850952 1779.078369,1283.442505 1779.768311,1260.773193 
	C1780.507935,1236.468628 1780.323364,1212.115234 1779.811035,1187.798706 
	C1779.249390,1161.140015 1771.743164,1135.927368 1762.295288,1111.193604 
	C1752.172607,1084.693237 1740.837402,1058.734741 1726.696045,1034.143066 
	C1709.032349,1003.425903 1688.151123,974.994812 1663.563232,949.397949 
	C1645.978760,931.091980 1627.178833,914.042725 1606.298340,899.639893 
	C1590.430786,888.694763 1573.776245,878.808411 1556.999512,869.283081 
	C1534.027344,856.240234 1509.326904,846.858948 1484.205444,839.070740 
	C1457.792725,830.882141 1430.674683,825.393921 1403.108154,822.176880 
	C1370.221924,818.338867 1337.261230,817.579712 1304.337280,820.134827 
	C1266.626953,823.061462 1229.954346,831.385254 1194.533813,844.853149 
	C1192.085327,845.784119 1189.806274,847.160583 1185.808350,849.143250 
	C1189.313599,850.476501 1191.434692,851.601868 1193.693726,852.092773 
	C1214.154541,856.538818 1230.027100,868.199341 1243.356079,883.737061 
	C1248.242798,889.433594 1251.140503,896.318848 1251.574463,903.789673 
	C1252.984375,928.065796 1253.997070,952.364685 1255.281128,976.648560 
	C1256.082275,991.801270 1250.284424,1003.820923 1238.729614,1013.416687 
	C1233.607178,1017.670715 1228.973145,1022.513916 1223.841797,1026.756226 
	C1212.728394,1035.944214 1208.546631,1047.866333 1208.036499,1061.979370 
	C1207.689331,1071.583984 1209.918457,1078.802368 1217.321533,1085.688721 
	C1245.623291,1112.014648 1273.234009,1139.082397 1301.211670,1165.758911 
	C1305.698853,1170.037354 1310.741699,1173.732910 1315.583252,1177.744019 
	C1324.958618,1163.727661 1321.816406,1148.802490 1308.854980,1141.103271 
	C1299.708496,1135.670166 1290.582031,1130.382812 1283.383301,1122.095825 
	C1273.113281,1110.273193 1267.824585,1096.524414 1266.274536,1081.334229 
	C1264.922852,1068.086548 1264.000244,1054.739746 1263.912109,1041.429932 
	C1263.704346,1010.033020 1275.663452,984.346069 1301.895386,966.328613 
	C1316.387207,956.374756 1332.772827,953.092896 1350.314697,954.428711 
	C1394.818970,957.817627 1423.723389,999.844238 1423.012817,1039.415771 
	C1422.702881,1056.671753 1421.161011,1074.023926 1418.570923,1091.088379 
	C1415.852173,1108.999634 1405.922119,1123.096191 1390.597534,1133.053345 
	C1384.736938,1136.861450 1378.771729,1140.533447 1372.666382,1143.929810 
	C1369.419556,1145.735962 1367.630737,1147.857788 1367.672363,1151.726440 
	C1367.981323,1180.389160 1368.173462,1209.053101 1368.461914,1237.716064 
	C1368.470825,1238.599121 1369.129517,1239.475708 1369.798950,1241.131348 
	C1371.866455,1239.655640 1373.822876,1238.636108 1375.305786,1237.145508 
	C1408.215820,1204.064941 1441.041626,1170.900635 1473.988159,1137.856689 
	C1477.479492,1134.354980 1479.556152,1130.823486 1479.381226,1125.633057 
	C1478.617798,1102.985107 1478.191406,1080.325928 1477.580078,1057.672607 
	C1477.284912,1046.745728 1473.031982,1038.977783 1463.647339,1031.859985 
	C1443.265015,1016.400879 1432.085938,995.212952 1433.201904,968.844910 
	C1433.652588,958.195740 1435.352661,947.584167 1435.512695,936.940918 
	C1435.968872,906.611877 1460.172241,879.855774 1490.465332,872.388855 
	C1509.991943,867.575806 1528.217285,871.651550 1545.194336,881.649963 
	C1557.928955,889.149902 1565.352661,900.869873 1568.874756,914.991577 
	C1572.630981,930.051880 1572.857300,945.423706 1570.743896,960.685303 
	C1569.055664,972.876282 1566.037231,984.877136 1563.944458,997.020081 
	C1562.581665,1004.927307 1558.985229,1011.503479 1553.290161,1016.915161 
	C1547.738403,1022.190613 1542.170776,1027.521484 1536.092896,1032.148438 
	C1531.050659,1035.986938 1529.293701,1040.353394 1529.396851,1046.633423 
	C1529.911377,1077.959717 1530.483765,1109.300171 1530.015503,1140.620361 
	C1529.823120,1153.495117 1527.360840,1166.378784 1525.282104,1179.152832 
	C1524.749146,1182.428345 1522.262451,1185.809814 1519.808960,1188.286255 
	C1470.321411,1238.238281 1421.787720,1289.165649 1369.261597,1336.024170 
	C1365.137695,1339.703125 1361.453369,1343.875000 1356.917114,1348.474609 
	C1366.089722,1353.411865 1374.848389,1355.281250 1383.554321,1356.367920 
	C1386.969482,1356.794312 1391.377563,1354.479004 1394.362427,1352.161499 
	C1403.295288,1345.226318 1412.319824,1338.244507 1420.294556,1330.267090 
	C1466.242432,1284.304443 1511.871338,1238.022949 1557.703247,1191.943848 
	C1561.269775,1188.358154 1562.523071,1184.504761 1562.776123,1179.526855 
	C1563.933228,1156.762939 1568.102539,1134.339600 1577.023315,1113.477295 
	C1592.835327,1076.499634 1634.629517,1061.676025 1670.816040,1079.182251 
	C1698.150391,1092.406006 1711.657349,1115.503906 1715.492798,1144.686035 
	C1716.285645,1150.717896 1715.060303,1157.403076 1713.229492,1163.311401 
	C1709.388794,1175.706787 1704.948853,1187.959717 1700.003296,1199.961426 
	C1687.281128,1230.835449 1655.151855,1250.110474 1622.161011,1245.530884 
	C1608.597046,1243.648071 1597.919678,1246.856201 1588.371338,1255.836670 
	C1575.750977,1267.706421 1562.825562,1279.281006 1550.682129,1291.622925 
	C1516.323730,1326.543335 1482.262207,1361.756592 1448.183594,1396.951172 
	C1443.870850,1401.405396 1440.154297,1406.436768 1435.178833,1412.373291 
	C1439.688232,1414.664673 1442.616943,1416.878174 1445.885376,1417.646973 
	C1451.037720,1418.858887 1456.414185,1419.619507 1461.703125,1419.661011 
	C1483.699463,1419.834351 1505.699829,1419.528198 1527.695801,1419.725464 
	C1532.993408,1419.772827 1536.356934,1417.371582 1539.658203,1413.796387 
	C1550.735474,1401.800171 1562.143433,1390.105347 1573.076294,1377.980957 
	C1583.837402,1366.046509 1596.942627,1360.559937 1612.991943,1360.956055 
	C1628.058838,1361.328003 1642.862305,1362.225220 1657.120850,1367.953735 
	C1690.429443,1381.335693 1706.073486,1412.312012 1704.405273,1443.152588 
	C1702.735352,1474.019897 1689.968018,1501.026733 1667.577271,1521.804321 
	C1634.687622,1552.324219 1579.300781,1550.021973 1551.879272,1511.926514 
	C1548.767212,1507.602905 1545.674194,1503.259155 1542.754639,1498.805298 
	C1539.268677,1493.487549 1534.678589,1490.034790 1528.233765,1489.309326 
	C1524.264404,1488.862671 1520.291016,1487.894531 1516.335693,1487.973877 
	C1494.025146,1488.421143 1471.717529,1489.055420 1449.414429,1489.791260 
	C1446.214966,1489.896729 1443.045166,1490.896484 1439.969727,1491.462524 
	C1439.272339,1497.123779 1442.973145,1499.764893 1445.538086,1502.320312 
	C1462.056152,1518.776978 1478.763916,1535.050171 1495.684937,1551.093018 
	C1506.072876,1560.941772 1518.584351,1564.925049 1533.085815,1564.981323 
	C1543.258789,1565.020752 1553.838257,1566.436279 1563.514160,1569.510254 
	C1599.525635,1580.950928 1617.425537,1620.308228 1605.931274,1653.779907 
	C1605.172485,1655.989624 1604.380981,1658.187988 1603.237671,1661.068237 
M1303.964600,1434.943970 
	C1303.527344,1438.886475 1302.341919,1442.912109 1302.770020,1446.758301 
	C1306.464722,1479.953125 1344.942627,1497.055664 1371.369629,1476.718628 
	C1388.972900,1463.171875 1389.314575,1452.989380 1375.158569,1436.745239 
	C1374.072876,1435.499390 1372.736694,1434.474121 1371.541870,1433.320557 
	C1364.852173,1426.861450 1358.181396,1420.382690 1351.480347,1413.935425 
	C1348.609009,1411.172974 1345.867554,1408.230591 1342.742798,1405.784424 
	C1332.349365,1397.647583 1323.360718,1398.780640 1315.136108,1409.006226 
	C1309.378540,1416.164429 1306.167969,1424.456421 1303.964600,1434.943970 
M1624.654785,1473.613770 
	C1630.224854,1471.665405 1636.020996,1470.167725 1641.253052,1467.544922 
	C1643.322266,1466.507568 1645.681519,1462.656616 1645.271851,1460.616333 
	C1642.606323,1447.342773 1634.267456,1438.061157 1622.169067,1432.668091 
	C1611.813354,1428.051636 1603.783569,1434.468628 1595.876953,1440.045654 
	C1592.097290,1442.711670 1591.475464,1445.999023 1592.865601,1450.449097 
	C1597.104858,1464.020020 1607.636719,1472.319214 1624.654785,1473.613770 
M1503.829346,1925.091919 
	C1510.558716,1922.348877 1511.838989,1916.846069 1511.217285,1910.417114 
	C1510.460938,1902.597900 1506.704224,1896.799561 1499.792480,1892.892456 
	C1489.845581,1887.269531 1478.381348,1890.561279 1472.525269,1900.927368 
	C1468.591919,1907.890259 1472.712769,1918.673706 1481.249756,1923.757690 
	C1487.992676,1927.772949 1495.124268,1927.560547 1503.829346,1925.091919 
M1336.588867,1041.178345 
	C1328.700562,1043.303955 1321.829834,1046.684448 1318.817139,1054.836792 
	C1332.925903,1071.735229 1357.356201,1071.555542 1368.873169,1054.293457 
	C1361.423218,1043.652466 1351.273193,1039.088135 1336.588867,1041.178345 
M1180.598633,1735.971436 
	C1192.614014,1737.004028 1198.604126,1732.024536 1200.469727,1718.933105 
	C1194.860840,1715.564819 1188.726318,1715.444092 1182.411133,1716.766479 
	C1177.492554,1717.796631 1172.113037,1718.637817 1170.898804,1724.666504 
	C1169.595581,1731.137329 1175.075073,1732.930176 1180.598633,1735.971436 
M1185.429932,954.340637 
	C1190.823120,952.386292 1195.575439,949.781677 1196.873657,943.629822 
	C1184.303833,932.625366 1171.750244,933.983093 1163.308716,947.314148 
	C1169.045532,952.988953 1176.278320,954.403687 1185.429932,954.340637 
M1641.100586,1168.073242 
	C1644.540161,1167.889160 1648.436646,1169.192627 1650.800659,1165.326050 
	C1645.219849,1155.838257 1634.435303,1153.350586 1624.385864,1159.625000 
	C1628.260254,1164.772461 1633.546143,1166.885620 1641.100586,1168.073242 
z"/>
<path fill="#090909" opacity="1.000000" stroke="none" 
	d="
M1304.108887,1434.137451 
	C1306.167969,1424.456421 1309.378540,1416.164429 1315.136108,1409.006226 
	C1323.360718,1398.780640 1332.349365,1397.647583 1342.742798,1405.784424 
	C1345.867554,1408.230591 1348.609009,1411.172974 1351.480347,1413.935425 
	C1358.181396,1420.382690 1364.852173,1426.861450 1371.541870,1433.320557 
	C1372.736694,1434.474121 1374.072876,1435.499390 1375.158569,1436.745239 
	C1389.314575,1452.989380 1388.972900,1463.171875 1371.369629,1476.718628 
	C1344.942627,1497.055664 1306.464722,1479.953125 1302.770020,1446.758301 
	C1302.341919,1442.912109 1303.527344,1438.886475 1304.108887,1434.137451 
z"/>
<path fill="#101010" opacity="1.000000" stroke="none" 
	d="
M1623.825317,1473.622437 
	C1607.636719,1472.319214 1597.104858,1464.020020 1592.865601,1450.449097 
	C1591.475464,1445.999023 1592.097290,1442.711670 1595.876953,1440.045654 
	C1603.783569,1434.468628 1611.813354,1428.051636 1622.169067,1432.668091 
	C1634.267456,1438.061157 1642.606323,1447.342773 1645.271851,1460.616333 
	C1645.681519,1462.656616 1643.322266,1466.507568 1641.253052,1467.544922 
	C1636.020996,1470.167725 1630.224854,1471.665405 1623.825317,1473.622437 
z"/>
<path fill="#111010" opacity="1.000000" stroke="none" 
	d="
M1503.118164,1925.396973 
	C1495.124268,1927.560547 1487.992676,1927.772949 1481.249756,1923.757690 
	C1472.712769,1918.673706 1468.591919,1907.890259 1472.525269,1900.927368 
	C1478.381348,1890.561279 1489.845581,1887.269531 1499.792480,1892.892456 
	C1506.704224,1896.799561 1510.460938,1902.597900 1511.217285,1910.417114 
	C1511.838989,1916.846069 1510.558716,1922.348877 1503.118164,1925.396973 
z"/>
<path fill="#171616" opacity="1.000000" stroke="none" 
	d="
M1337.386719,1041.009033 
	C1351.273193,1039.088135 1361.423218,1043.652466 1368.873169,1054.293457 
	C1357.356201,1071.555542 1332.925903,1071.735229 1318.817139,1054.836792 
	C1321.829834,1046.684448 1328.700562,1043.303955 1337.386719,1041.009033 
z"/>
<path fill="#201F1F" opacity="1.000000" stroke="none" 
	d="
M1179.940674,1735.705811 
	C1175.075073,1732.930176 1169.595581,1731.137329 1170.898804,1724.666504 
	C1172.113037,1718.637817 1177.492554,1717.796631 1182.411133,1716.766479 
	C1188.726318,1715.444092 1194.860840,1715.564819 1200.469727,1718.933105 
	C1198.604126,1732.024536 1192.614014,1737.004028 1179.940674,1735.705811 
z"/>
<path fill="#242222" opacity="1.000000" stroke="none" 
	d="
M1184.702637,954.459595 
	C1176.278320,954.403687 1169.045532,952.988953 1163.308716,947.314148 
	C1171.750244,933.983093 1184.303833,932.625366 1196.873657,943.629822 
	C1195.575439,949.781677 1190.823120,952.386292 1184.702637,954.459595 
z"/>
<path fill="#383636" opacity="1.000000" stroke="none" 
	d="
M1640.298096,1167.983643 
	C1633.546143,1166.885620 1628.260254,1164.772461 1624.385864,1159.625000 
	C1634.435303,1153.350586 1645.219849,1155.838257 1650.800659,1165.326050 
	C1648.436646,1169.192627 1644.540161,1167.889160 1640.298096,1167.983643 
z"/>
</svg>